<?xml version="1.0" encoding="UTF-8" standalone="no"?>
<!DOCTYPE svg PUBLIC "-//W3C//DTD SVG 1.1//EN" "http://www.w3.org/Graphics/SVG/1.1/DTD/svg11.dtd">
<svg width="100%" height="100%" viewBox="0 0 1080 1080" version="1.1" xmlns="http://www.w3.org/2000/svg" xmlns:xlink="http://www.w3.org/1999/xlink" xml:space="preserve" xmlns:serif="http://www.serif.com/" style="fill-rule:evenodd;clip-rule:evenodd;stroke-linejoin:round;stroke-miterlimit:2;">
    <g id="Academy">
        <circle cx="539" cy="560" r="170"/>
        <path d="M538.998,373.076C550.85,373.423 610.296,374.527 662.498,424.043C702.161,461.665 723.841,515.478 718.8,572.706C714.547,620.979 691.007,664.973 654.601,695.203C643.334,704.558 615.109,726.413 570.309,734.236C560.108,736.017 532.631,740.124 498.029,732.014C452.455,721.333 409.059,691.888 382.988,646.401C377.393,636.638 355.521,598.546 359.411,543.288C362.935,493.209 387.274,447.274 425.133,415.799C474.862,374.456 528.576,373.424 538.998,373.076ZM539.002,406.922C527.472,406.588 487.423,405.849 446.399,434.371C412.228,458.128 386.692,496.036 380.415,542.178C375.363,579.312 383.525,618.206 405.047,650.88C427.124,684.396 463.736,712.836 512.126,721.038C531.06,724.247 548.4,722.848 551.545,722.595C565.585,721.462 587.025,718.025 611.212,705.653C669.497,675.84 687.133,623.257 689.761,615.682C711.917,551.825 691.357,481.193 638.266,439.555C607.916,415.752 576.691,410.368 570.969,409.329C555.479,406.513 543.39,406.817 539.002,406.922Z"/>
        <g transform="matrix(1,0,0,1,1,45.2344)">
            <path d="M725.838,334.766C725.838,342.422 721.657,346.624 720.891,347.393C720.355,347.932 717.287,351.015 712.382,351.639C710.259,351.909 710.254,351.8 708.12,351.603C678.9,348.907 678.902,348.909 649.65,346.605C645.433,346.273 622.266,344.448 596.893,343.11C574.486,341.928 561.985,341.693 558.948,341.636C554.367,341.549 535.927,341.202 501.681,342.634C497.737,342.798 476.856,343.671 452.416,345.334C411.174,348.141 411.186,348.259 369.981,351.607C364.881,352.022 362.972,351.062 362.429,350.789C360.519,349.829 358.56,348.81 357.048,347.299C355.489,345.739 354.226,343.822 353.412,341.772C350.631,334.766 352.999,328.801 353.412,327.759C354.226,325.709 355.489,323.792 357.048,322.233C357.59,321.691 360.67,318.61 365.601,317.934C367.782,317.634 367.788,317.746 369.981,317.924C411.185,321.273 411.173,321.391 452.416,324.197C476.856,325.86 497.737,326.733 501.681,326.898C535.927,328.329 554.367,327.982 558.948,327.896C561.985,327.838 574.486,327.603 596.893,326.421C622.266,325.083 645.433,323.258 649.65,322.926C686.887,319.993 704.257,318.304 709,317.843C715.945,317.167 720.178,321.421 720.891,322.138C721.657,322.907 725.838,327.109 725.838,334.766Z"/>
        </g>
    </g>
</svg>
