<?xml version="1.0" encoding="UTF-8" standalone="no"?>
<!DOCTYPE svg PUBLIC "-//W3C//DTD SVG 1.1//EN" "http://www.w3.org/Graphics/SVG/1.1/DTD/svg11.dtd">
<svg width="100%" height="100%" viewBox="0 0 1080 1080" version="1.1" xmlns="http://www.w3.org/2000/svg" xmlns:xlink="http://www.w3.org/1999/xlink" xml:space="preserve" xmlns:serif="http://www.serif.com/" style="fill-rule:evenodd;clip-rule:evenodd;stroke-linejoin:round;stroke-miterlimit:2;">
    <g transform="matrix(1,0,0,1,-51,38.8676)">
        <path d="M591,294L642.414,452.235L808.792,452.235L674.189,550.03L725.603,708.265L591,610.47L456.397,708.265L507.811,550.03L373.208,452.235L539.586,452.235L591,294Z"/>
        <path d="M607.095,288.77L652.702,438.075C704.731,438.845 756.763,439.428 808.792,440.197C809.42,440.207 812.915,440.258 816.151,442.951C816.737,443.439 820.177,446.301 820.378,451.506C820.412,452.39 820.617,457.724 815.447,461.395C772.088,492.179 728.652,522.854 685.293,553.638C701.208,604.374 717.247,655.072 733.162,705.809C733.226,706.01 733.509,706.913 733.485,708.43C733.481,708.641 733.429,708.849 733.403,709.059C733.278,710.051 733.311,710.061 732.945,710.995C732.761,711.467 731.68,714.227 728.445,715.443C727.893,715.651 724.561,716.904 721.144,714.401C677.745,682.614 634.399,650.754 591,618.966L460.578,714.02C459.068,715.125 457.577,715.335 457.295,715.375C456.418,715.499 456.416,715.474 455.536,715.381C454.614,715.283 454.604,715.316 453.733,714.994C449.965,713.606 449.233,710.206 449.114,709.654C448.701,707.733 449.173,706.23 449.262,705.947C465.229,655.103 481.313,604.295 497.28,553.452C453.819,522.607 410.285,491.865 366.825,461.021C361.86,457.498 362.052,452.383 362.084,451.535C362.272,446.536 365.574,443.783 366.137,443.314C369.242,440.726 372.604,440.671 373.208,440.661C425.29,439.812 477.375,439.141 529.457,438.293L574.905,288.77C575.217,287.879 575.565,286.996 576.003,286.16C576.513,285.184 579.493,279.482 586.791,277.609C594.089,275.735 599.448,279.295 600.365,279.904C601.151,280.427 601.896,281.017 602.585,281.664C603.273,282.31 603.974,282.971 604.48,283.768C605.488,285.357 606.087,287.182 607.095,288.77ZM590.975,346.182L553.062,456.614C552.946,456.948 552.344,458.694 550.964,460.502C547.453,465.103 542.591,465.753 541.745,465.867C541.031,465.962 540.305,466.039 539.586,465.984C485.186,461.841 430.808,457.418 376.408,453.275C421.957,483.127 467.625,512.796 513.174,542.648C514.155,543.291 515.002,544.524 515.13,544.712C517.235,547.779 516.657,550.876 516.557,551.415C516.472,551.87 516.36,552.322 516.196,552.754C496.737,604.014 477.15,655.224 457.691,706.484C490.886,680.412 523.251,653.296 556.446,627.225C566.356,619.441 576.788,612.347 586.981,604.939C589.823,602.874 592.653,603.769 593.128,603.92C593.293,603.972 594.302,604.291 595.058,604.884C638.121,638.649 681.101,672.518 724.163,706.283C704.61,655.136 684.916,604.044 665.363,552.898C664.873,551.616 664.838,550.263 664.832,550.03C664.817,549.451 664.732,546.125 667.438,543.278C667.783,542.915 668.135,542.548 668.554,542.274C714.082,512.579 759.735,483.077 805.263,453.382C750.972,457.551 696.704,462.004 642.414,466.173C640.503,466.32 638.408,465.697 638.072,465.597C637.239,465.349 632.452,463.924 629.649,458.739C629.292,458.078 628.98,457.39 628.736,456.679C616.101,419.863 603.556,383.016 590.975,346.182Z"/>
    </g>
</svg>
