<?xml version="1.0" encoding="UTF-8" standalone="no"?>
<!DOCTYPE svg PUBLIC "-//W3C//DTD SVG 1.1//EN" "http://www.w3.org/Graphics/SVG/1.1/DTD/svg11.dtd">
<svg width="100%" height="100%" viewBox="0 0 1080 1080" version="1.1" xmlns="http://www.w3.org/2000/svg" xmlns:xlink="http://www.w3.org/1999/xlink" xml:space="preserve" xmlns:serif="http://www.serif.com/" style="fill-rule:evenodd;clip-rule:evenodd;stroke-linejoin:round;stroke-miterlimit:2;">
    <g id="Coastal" transform="matrix(1,0,0,1,35,-17.3223)">
        <path d="M990.132,584.126C990.506,585.828 991.047,587.501 991.253,589.231C991.435,590.763 992.489,599.629 986.06,607.808C982.931,611.789 979.281,613.779 978.592,614.154C975.242,615.981 975.15,615.78 971.47,616.782C964.688,618.627 910.963,633.251 886.636,639.626C869.45,644.129 842.653,651.096 798.257,661.452C795.84,662.016 765.83,669.158 726.046,676.828C710.456,679.834 685.206,684.479 653.563,688.175C647.392,688.896 613.693,692.955 586.533,690.649C568.132,689.086 548.996,681.09 527.222,663.036C505.276,644.839 489.7,626.471 472.48,610.513C449.985,589.669 431.185,577.658 410.671,577.325C410.477,577.322 392.631,576.684 358.917,587.585C323.612,599 288.961,616.272 282.969,619.216C226.472,646.972 171.38,680.927 164.311,685.238C132.558,704.603 100.825,724.943 100.638,725.014C99.033,725.628 97.478,726.389 95.825,726.853C94.332,727.272 85.8,729.665 76.515,725.231C71.994,723.073 69.348,720.129 68.837,719.562C61.867,711.812 62.515,702.614 62.624,701.056C63.359,690.61 69.991,684.913 71.153,683.915C71.464,683.648 73.354,682.024 75.356,680.989C97.56,669.503 133.315,650.754 182.973,626.956C230.268,604.29 267.44,588.719 301.772,576.349C317.823,570.565 358.786,556.329 393.422,553.157C406.33,551.975 421.535,551.383 441.43,560.523C463.805,570.802 481.957,589.46 496.633,604.505C511.568,619.816 526.639,636.508 540.768,647.858C553.174,657.824 566.483,665.942 581.769,668.453C584.145,668.843 587.708,669.469 599.204,669.18C621.935,668.61 646.046,664.594 658.691,662.336C668.082,660.659 681.836,657.583 683.841,657.135C712.789,650.662 737.437,643.628 742.059,642.309C777.957,632.065 806.238,622.63 811.775,620.783C850.344,607.916 886.413,594.797 911.308,585.607C918.522,582.944 948.734,571.478 958.126,567.867C959.222,567.446 962.93,567.438 963.349,567.437C964.921,567.433 973.956,567.411 982.062,573.418C986.007,576.341 987.896,579.472 988.273,580.097C988.456,580.401 989.806,582.639 990.132,584.126Z"/>
        <path d="M273.829,539.475C273.95,543.333 273.976,543.379 272.736,547.036C272.409,547.999 270.339,554.102 264.05,556.328C263.041,556.685 261.981,556.923 260.915,557.019C258.49,557.238 258.493,557.049 256.08,556.702C255.16,556.57 244.219,554.783 227.021,554.437C225.587,554.408 216.864,554.5 211.626,554.923C202.429,555.667 198.276,556.371 197.125,556.566C188.456,558.034 184.645,559.027 183.575,559.306C176.854,561.058 174.034,562.12 169.853,563.825C163.055,566.598 161.358,567.525 158.589,568.947C153.545,571.539 150.616,573.139 144.27,577.177C144.145,577.257 139.863,579.84 131.825,585.891C129.841,587.385 118.869,596.008 108.87,606.208C102.951,612.246 98.816,617.012 98.733,617.086C97.889,617.838 97.126,618.694 96.199,619.342C92.146,622.174 87.799,621.747 87.047,621.673C84.817,621.454 82.594,620.721 80.648,619.609C79.623,619.023 73.779,615.684 71.286,608.208C70.578,606.086 70.296,603.767 70.515,601.54C70.589,600.787 71.016,596.442 74.562,592.992C76.347,591.256 76.463,591.404 78.593,590.119C80.291,589.096 87.783,584.579 100.257,578.071C103.707,576.271 109.064,573.445 123.404,567.128C126.719,565.667 136.127,561.707 142.492,559.299C151.65,555.836 151.621,555.763 157.512,553.738C158.054,553.552 162.057,551.937 169.105,549.58C169.427,549.472 171.259,548.751 174.547,547.577C175.762,547.142 177.085,546.587 180.674,545.283C182.461,544.634 186.832,542.809 194.432,540.234C196.352,539.584 200.541,537.922 209.224,535.233C209.904,535.023 215.053,533.261 222.991,531.075C224.984,530.526 233.433,527.917 246.346,525.201C248.342,524.782 249.77,524.406 255.705,523.241C257.758,522.839 257.752,522.723 259.847,522.794C260.353,522.812 263.076,522.905 265.92,524.554C266.599,524.948 270.209,527.042 272.268,532.039C273.731,535.589 273.71,535.636 273.829,539.475Z"/>
        <g transform="matrix(1,0,0,1,0,-11.9648)">
            <path d="M382.695,528.257C380.47,528.431 378.237,529.029 376.021,528.772C373.869,528.524 371.736,527.814 369.838,526.769C367.944,525.726 366.206,524.307 364.85,522.623C364.839,522.609 361.744,516.711 361.743,516.702C361.559,514.472 360.945,512.235 361.194,510.011C361.435,507.858 362.141,505.722 363.186,503.824C364.229,501.929 365.654,500.192 367.343,498.84C370.761,496.105 370.885,496.151 375.199,495.391C377.281,495.024 392.274,492.049 416.171,495.41C419.849,495.927 431.555,497.557 448.962,503.239C450.519,503.747 458.252,506.272 468.074,510.587C469.356,511.15 475.278,513.752 483.759,518.371C483.923,518.46 489.654,521.406 499.692,528.25C503.254,530.679 506.531,533.066 513.156,538.684C516.972,541.919 525.193,549.393 531.644,557.881C534.501,561.641 536.711,565.567 546.334,575.836C548.796,578.463 553.497,583.509 564.887,593.589C565.037,593.721 571.171,599.063 581.078,606.886C586.274,610.989 590.052,613.929 600.032,621.227C600.499,621.568 603.926,624.075 604.888,626.588C605.644,628.564 606.393,630.625 606.455,632.741C606.488,633.841 606.66,639.751 601.278,645.486C595.9,651.218 589.991,651.421 588.891,651.459C588.135,651.485 583.784,651.634 579.859,648.649C578.235,647.413 578.293,647.347 576.986,645.781C560.834,626.435 558.609,623.986 548.02,610.14C547.686,609.703 542.08,602.678 533.462,590.257C532.503,588.875 527.775,582.061 522.19,572.5C518.74,566.593 516.611,561.588 508.722,553.198C507.997,552.427 504.49,548.974 501.867,546.898C494.314,540.922 488.24,537.688 486.978,537.016C476.446,531.407 468.624,528.984 467.106,528.483C462.673,527.021 453.604,524.114 439.633,522.287C435.486,521.744 418.809,520.131 403.393,522.525C394.727,523.871 387.877,525.967 382.695,528.257ZM382.695,528.257C382.697,528.257 382.7,528.257 382.702,528.257C382.7,528.258 382.688,528.261 382.685,528.262C382.688,528.26 382.692,528.259 382.695,528.257Z"/>
        </g>
        <path d="M947.81,510.999C953.384,516.484 953.446,522.399 953.458,523.496C953.466,524.253 953.511,528.606 950.45,532.475C949.172,534.089 949.105,534.027 947.504,535.315C933.805,546.338 921.508,556.376 903.596,566.289C881.011,578.789 865.472,580.036 862.585,580.374C853.025,581.495 851.476,580.085 833.428,581.593C832.897,581.638 826.489,582.297 822.9,582.911C811.539,584.853 805.718,586.369 804.244,586.753C790.669,590.29 783.451,592.992 781.747,593.598C775.567,595.794 767.765,598.633 753.666,605.112C753.603,605.141 745.275,609.023 733.066,615.565C716.237,624.581 709.335,629.19 694.918,637.444C692.509,638.824 688.91,638.928 688.373,638.943C686.211,639.006 684.002,638.602 681.982,637.829C679.957,637.055 678.037,635.879 676.462,634.389C676.45,634.377 672.547,628.902 672.545,628.894C672.064,626.729 671.159,624.616 671.106,622.399C671.054,620.239 671.464,618.035 672.236,616.017C673.01,613.992 674.179,612.072 675.66,610.489C679.129,606.779 679.455,607.113 684.27,605.501C693.001,602.58 713.902,595.247 726.895,591.142C728.769,590.55 736.441,588.127 750.465,584.225C758.03,582.12 771.05,578.818 780.94,576.725C794.259,573.907 794.268,573.969 807.675,571.585C815.28,570.232 815.89,570.28 825.032,568.883C825.489,568.813 834.965,567.424 838.68,566.945C846.146,565.981 846.131,565.905 853.612,565.111C859.64,564.472 865.905,562.651 873.613,558.739C886.856,552.019 897.922,540.909 899.896,538.963C910.916,528.094 919.326,517.072 923.507,511.69C923.863,511.231 926.483,507.859 929.023,506.961C931.02,506.256 933.1,505.559 935.219,505.547C936.316,505.541 942.231,505.509 947.81,510.999Z"/>
        <path d="M479.177,443.291C475.783,450.357 470.208,452.33 469.172,452.696C468.458,452.949 464.355,454.401 459.708,452.746C457.779,452.059 457.815,451.977 456.085,450.877C450.749,447.483 435.158,437.37 417.776,429.598C410.528,426.357 403.518,424.216 402.251,423.829C400.332,423.243 390.968,420.365 380.689,420.177C378.312,420.133 367.91,420.769 357.868,422.552C347.71,424.356 342.564,425.783 336.811,427.415C326.62,430.306 324.166,431.182 318.429,433.144C311.697,435.446 307.802,436.735 290.744,443.451C289.199,444.06 274.691,450.112 271.991,451.311C260.834,456.265 251.597,460.464 239.626,465.994C237.576,466.942 218.177,476.278 212.771,478.909C206.459,481.98 201.009,479.432 200.09,479.002C198.083,478.063 196.239,476.674 194.775,475.01C194.022,474.155 189.721,469.268 189.918,461.621C189.975,459.406 190.5,457.157 191.439,455.15C191.762,454.459 193.609,450.51 198.042,448.273C199.916,447.328 199.952,447.413 201.988,446.903L295.955,423.475C302.081,421.958 302.086,421.993 308.203,420.432C317.138,418.151 317.167,418.28 326.095,415.963C334.553,413.768 334.585,413.906 343.047,411.715C343.79,411.523 343.785,411.526 352.341,409.333C352.685,409.244 362.067,406.897 363.557,406.541C379.574,402.718 389.753,401.639 407.125,403.729C409.087,403.965 417.709,405.002 431.386,408.344C447.026,412.165 461.456,417.406 471.328,420.746C472.94,421.291 472.944,421.292 474.388,422.187C478.581,424.785 480.013,428.895 480.262,429.611C480.623,430.647 482.567,436.233 479.177,443.291Z"/>
        <path d="M842.448,502.301C845.574,509.511 843.415,515.015 843.014,516.039C842.738,516.744 841.148,520.796 836.851,523.216C835.074,524.216 835.035,524.135 833.077,524.717C809.905,531.608 805.948,532.981 790.709,537.302C787.153,538.31 780.8,540.26 770.816,542.978C764.018,544.829 762.766,545.367 750.316,548.419C747.066,549.215 734.595,552.907 728.698,554.89L722.58,556.943C721.081,557.444 719.474,558.051 714.853,559.655C711.903,560.678 706.194,562.968 697.76,565.714C697.602,565.765 685.97,570.019 673.905,572.475C658.008,575.711 646.25,574.399 631.709,568.963C624.636,566.319 613.297,561.321 594.712,548.264C587.368,543.105 580.965,538.053 577.287,535.215C571.729,530.925 571.603,524.91 571.581,523.896C571.535,521.68 571.966,519.41 572.811,517.361C575.733,510.277 581.656,507.536 582.692,507.056C584.705,506.125 586.955,505.598 589.173,505.552C589.935,505.536 594.294,505.444 598.251,508.441C599.913,509.7 599.855,509.767 601.197,511.362C610.566,522.503 619.425,532.79 631.148,542.114C641.022,549.967 648.29,553.339 654.31,555.036C656.943,555.779 662.904,557.352 675.618,555.91C676.758,555.781 686.334,554.419 695.871,551.587C701.629,549.877 706.962,548.069 708.738,547.47C709.798,547.112 716.339,544.613 717.765,544.023C725.673,540.754 725.66,540.73 730.961,538.406C745.38,532.085 746.601,532.112 762.491,524.733C763.11,524.445 775.024,518.676 783.022,514.382C804.025,503.107 817.328,495.217 820.267,493.474C821.731,492.606 821.735,492.603 823.355,492.092C828.057,490.606 832.102,492.216 832.805,492.496C833.827,492.903 839.32,495.089 842.448,502.301Z"/>
        <path d="M29.309,545.337C27.423,541.969 27.378,541.94 26.793,538.124C26.638,537.118 25.661,530.749 30.215,525.873C30.946,525.091 31.777,524.391 32.679,523.814C32.686,523.81 35.729,522.345 35.732,522.345C38.763,521.912 60.511,518.802 72.861,513.078C73.886,512.603 78.015,510.689 84.669,505.323C89.492,501.434 93.221,497.744 93.927,497.045C101.475,489.575 101.388,489.495 108.562,481.662C109.812,480.296 109.932,480.437 111.596,479.628C112.053,479.407 114.514,478.211 117.809,478.351C118.596,478.384 122.776,478.56 126.926,482.059C126.938,482.07 131.768,487.972 131.771,487.98C132.607,490.382 133.895,492.672 134.276,495.187C134.429,496.196 135.396,502.569 130.814,507.46C130.078,508.245 129.242,508.947 128.336,509.527C126.778,510.523 126.835,510.699 125.017,511.051C114.589,513.072 114.566,512.957 104.253,515.488C103.288,515.725 98.193,516.975 92.356,519.054C84.304,521.921 80.514,524.441 79.573,525.067C72.117,530.025 63.775,538.969 62.527,540.307C57.33,545.878 57.332,545.878 52.415,551.697C51.231,553.097 51.069,552.912 49.419,553.713C48.964,553.933 46.516,555.122 43.233,554.976C42.447,554.941 38.284,554.755 34.143,551.252C31.195,548.758 31.194,548.705 29.309,545.337Z"/>
        <path d="M971.755,429.211C973.615,432.594 973.659,432.623 974.215,436.444C974.361,437.451 975.288,443.828 970.697,448.667C969.96,449.444 969.123,450.137 968.217,450.707C968.21,450.711 965.155,452.152 965.152,452.152C962.093,452.575 940.166,455.602 927.651,461.295C926.613,461.767 922.432,463.669 915.668,469.021C910.764,472.9 906.966,476.584 906.246,477.282C898.558,484.737 898.643,484.818 891.326,492.641C890.063,493.992 889.948,493.855 888.274,494.652C887.816,494.87 885.346,496.046 882.051,495.881C881.265,495.842 877.086,495.632 872.964,492.101C872.952,492.091 868.168,486.151 868.165,486.143C867.348,483.735 866.078,481.434 865.716,478.916C865.571,477.907 864.654,471.526 869.274,466.671C870.016,465.892 870.857,465.196 871.768,464.624C873.337,463.637 873.283,463.467 875.101,463.124C885.627,461.139 885.649,461.254 896.064,458.759C897.039,458.525 902.185,457.292 908.087,455.231C916.231,452.388 920.077,449.878 921.032,449.254C928.6,444.314 937.106,435.384 938.379,434.048C943.678,428.485 943.676,428.485 948.698,422.672C949.897,421.283 950.055,421.467 951.711,420.679C952.167,420.462 954.625,419.293 957.907,419.464C958.692,419.505 962.853,419.723 966.967,423.259C969.895,425.776 969.896,425.829 971.755,429.211Z"/>
    </g>
</svg>
