<?xml version="1.0" encoding="UTF-8" standalone="no"?>
<!DOCTYPE svg PUBLIC "-//W3C//DTD SVG 1.1//EN" "http://www.w3.org/Graphics/SVG/1.1/DTD/svg11.dtd">
<svg width="100%" height="100%" viewBox="0 0 1080 1080" version="1.1" xmlns="http://www.w3.org/2000/svg" xmlns:xlink="http://www.w3.org/1999/xlink" xml:space="preserve" xmlns:serif="http://www.serif.com/" style="fill-rule:evenodd;clip-rule:evenodd;stroke-linejoin:round;stroke-miterlimit:2;">
    <g id="Corrupted" transform="matrix(1.47655,0,0,1.47655,-110.421,-215.257)">
        <g transform="matrix(1,0,0,1,-3.5,0)">
            <path d="M344.499,393.538C351.534,393.763 387.725,394.476 418.827,426.961C441.483,450.625 453.711,483.978 450.672,519.464C448.124,549.223 434.596,576.773 413.232,595.933C407.496,601.077 390.622,615.736 363.316,620.929C357.482,622.039 328.975,627.438 297.505,610.8C274.487,598.631 262.113,580.855 259.215,576.685C243.208,553.659 240.064,531.006 239.277,525.118C235.165,494.36 243.871,471.374 246.25,465.244C256.928,437.731 275.802,418.312 296.188,406.923C318.549,394.43 338.627,393.753 344.499,393.538ZM344.502,416.461C337.994,416.243 314.207,415.638 290.004,434.221C271.29,448.589 256.736,471.261 252.777,499.407C252.004,504.905 246.718,540.452 270.551,574.064C277.99,584.556 285.738,591.229 290.337,594.811C294.591,598.126 301.976,603.028 310.378,606.551C324.152,612.326 335.747,613.253 342.973,613.34C362.137,613.569 375.783,607.685 381.697,604.868C396.593,597.771 410.818,586.037 421.455,568.933C438.098,542.173 440.873,509.892 431.935,482.052C421.941,450.922 397.888,426.802 367.829,419.034C356.724,416.164 347.904,416.366 344.502,416.461Z"/>
        </g>
        <g transform="matrix(1,0,0,1,195.5,0)">
            <path d="M344.499,393.538C351.534,393.763 387.725,394.476 418.827,426.961C441.483,450.625 453.711,483.978 450.672,519.464C448.124,549.223 434.596,576.773 413.232,595.933C407.496,601.077 390.622,615.736 363.316,620.929C357.482,622.039 328.975,627.438 297.505,610.8C274.487,598.631 262.113,580.855 259.215,576.685C243.208,553.659 240.064,531.006 239.277,525.118C235.165,494.36 243.871,471.374 246.25,465.244C256.928,437.731 275.802,418.312 296.188,406.923C318.549,394.43 338.627,393.753 344.499,393.538ZM344.502,416.461C337.994,416.243 314.207,415.638 290.004,434.221C271.29,448.589 256.736,471.261 252.777,499.407C252.004,504.905 246.718,540.452 270.551,574.064C277.99,584.556 285.738,591.229 290.337,594.811C294.591,598.126 301.976,603.028 310.378,606.551C324.152,612.326 335.747,613.253 342.973,613.34C362.137,613.569 375.783,607.685 381.697,604.868C396.593,597.771 410.818,586.037 421.455,568.933C438.098,542.173 440.873,509.892 431.935,482.052C421.941,450.922 397.888,426.802 367.829,419.034C356.724,416.164 347.904,416.366 344.502,416.461Z"/>
        </g>
    </g>
</svg>
