<?xml version="1.0" encoding="UTF-8" standalone="no"?>
<!DOCTYPE svg PUBLIC "-//W3C//DTD SVG 1.1//EN" "http://www.w3.org/Graphics/SVG/1.1/DTD/svg11.dtd">
<svg width="100%" height="100%" viewBox="0 0 1080 1080" version="1.1" xmlns="http://www.w3.org/2000/svg" xmlns:xlink="http://www.w3.org/1999/xlink" xml:space="preserve" xmlns:serif="http://www.serif.com/" style="fill-rule:evenodd;clip-rule:evenodd;stroke-linejoin:round;stroke-miterlimit:2;">
    <g transform="matrix(1,0,0,1,153,62)">
        <g id="Crystal">
            <path d="M401.723,229.657L532.306,472.727C532.993,474.007 532.908,474.044 533.22,475.462C533.496,476.717 533.521,476.717 533.473,478C533.462,478.285 533.406,479.806 532.733,481.484C532.514,482.031 532.234,482.554 531.935,483.063C519.738,503.857 507.442,524.593 495.249,545.388C480.012,571.375 464.794,597.372 449.645,623.409C434.98,648.614 420.388,673.861 405.809,699.115C401.525,706.535 397.335,714.009 393.055,721.431C392.797,721.88 391.228,724.602 387.558,724.856C387.047,724.891 383.939,725.106 381.706,722.263C381.479,721.974 381.281,721.663 381.098,721.344C379.169,717.983 379.311,717.902 357.136,679.234C351.594,669.569 329.315,630.72 287.198,558.804C272.347,533.446 257.35,508.175 242.471,482.833C242.186,482.347 241.919,481.848 241.709,481.325C241.199,480.056 241.259,480.038 241.086,478.678C240.933,477.477 240.914,477.474 241.068,476.276C241.103,476 241.305,474.429 242.095,472.954C253.955,450.815 265.97,428.76 277.837,406.625L370.886,232.285C371.351,231.41 371.767,230.507 372.277,229.657C372.747,228.872 373.245,228.099 373.819,227.387C374.228,226.878 376.456,224.112 380.319,222.452C381.301,222.03 387,219.581 393.681,222.452C394.522,222.813 395.336,223.244 396.107,223.736C396.878,224.228 397.663,224.732 398.292,225.396C399.548,226.719 400.468,228.334 401.723,229.657ZM386.971,270.888L262.487,478C277.354,505.201 292.026,532.509 306.893,559.71C321.206,585.896 335.605,612.033 350.025,638.16C356.759,650.362 364.286,662.149 370.357,674.695C376.63,687.659 380.726,701.603 387,714.567L510.963,478L386.971,270.888Z"/>
        </g>
    </g>
</svg>
