<?xml version="1.0" encoding="UTF-8" standalone="no"?>
<!DOCTYPE svg PUBLIC "-//W3C//DTD SVG 1.1//EN" "http://www.w3.org/Graphics/SVG/1.1/DTD/svg11.dtd">
<svg width="100%" height="100%" viewBox="0 0 1080 1080" version="1.1" xmlns="http://www.w3.org/2000/svg" xmlns:xlink="http://www.w3.org/1999/xlink" xml:space="preserve" xmlns:serif="http://www.serif.com/" style="fill-rule:evenodd;clip-rule:evenodd;stroke-linejoin:round;stroke-miterlimit:2;">
    <g transform="matrix(1,0,0,1,281.079,-0.894404)">
        <g id="Crystal">
            <path d="M92.745,554.43C92.745,565.182 93.513,577.086 95.049,590.142C96.585,603.198 98.889,616.446 101.961,629.886C105.417,642.942 109.257,655.614 113.481,667.902C118.089,679.806 123.273,690.366 129.033,699.582C134.409,708.414 140.745,715.134 148.041,719.742C155.721,724.35 163.593,728.19 171.657,731.262C179.721,733.95 187.593,736.254 195.273,738.174C202.953,739.71 209.865,742.014 216.009,745.086C222.537,747.774 227.721,751.614 231.561,756.606C235.401,761.598 237.321,768.702 237.321,777.918L364.041,777.918C369.417,777.918 373.833,776.574 377.289,773.886C380.745,771.198 383.433,767.934 385.353,764.094C387.657,759.87 389.193,755.646 389.961,751.422C391.113,746.814 391.689,742.59 391.689,738.75C391.689,737.598 391.497,735.486 391.113,732.414C390.729,728.958 390.345,726.654 389.961,725.502C372.681,724.734 353.865,723.582 333.513,722.046C313.545,720.51 294.729,716.862 277.065,711.102C259.785,704.958 245.193,695.55 233.289,682.878C221.769,670.206 216.009,652.542 216.009,629.886C216.009,621.822 216.777,611.454 218.313,598.782C220.233,586.11 222.921,572.67 226.377,558.462C230.217,544.254 234.633,530.046 239.625,515.838C245.001,501.246 251.145,488.19 258.057,476.67C265.353,465.15 273.225,455.742 281.673,448.446C290.505,441.15 300.297,437.502 311.049,437.502C314.889,437.502 318.345,437.886 321.417,438.654C324.873,439.422 327.369,442.11 328.905,446.718C329.673,444.798 330.633,442.494 331.785,439.806C333.321,436.734 334.857,433.854 336.393,431.166C338.313,428.094 340.425,425.598 342.729,423.678C345.033,421.374 347.721,420.222 350.793,420.222C354.633,420.222 357.705,420.798 360.009,421.95C362.313,422.718 364.617,423.87 366.921,425.406C369.225,426.558 371.913,427.71 374.985,428.862C378.441,429.63 383.433,430.014 389.961,430.014L403.209,430.014C405.897,429.63 408.393,429.438 410.697,429.438L416.457,429.438C417.609,428.286 419.337,425.598 421.641,421.374C423.945,416.766 425.097,413.694 425.097,412.158C425.097,410.622 424.713,408.318 423.945,405.246C423.177,401.79 422.409,398.142 421.641,394.302C420.873,390.462 419.913,387.006 418.761,383.934C417.609,380.478 416.841,378.174 416.457,377.022C414.537,377.406 411.081,377.79 406.089,378.174L374.409,378.174C369.417,377.79 365.961,377.406 364.041,377.022C363.657,377.022 362.505,376.638 360.585,375.87C359.049,375.102 357.321,374.142 355.401,372.99C353.481,371.838 351.561,370.878 349.641,370.11C348.105,368.958 347.145,368.382 346.761,368.382C342.921,366.846 337.929,365.118 331.785,363.198C326.025,361.278 320.265,359.358 314.505,357.438C309.129,355.518 304.329,353.982 300.105,352.83C296.265,351.678 294.345,351.102 294.345,351.102L250.569,394.302L250.569,303.87C240.201,303.87 232.329,305.406 226.953,308.478C221.961,311.166 218.121,314.814 215.433,319.422C213.129,324.03 211.593,329.214 210.825,334.974C210.057,340.734 209.097,346.686 207.945,352.83C206.793,358.974 204.873,364.926 202.185,370.686C199.881,376.446 195.657,381.438 189.513,385.662C188.361,386.43 185.097,388.158 179.721,390.846C174.729,393.534 169.353,396.414 163.593,399.486C157.833,402.174 152.265,404.862 146.889,407.55C141.897,409.854 138.825,411.39 137.673,412.158C134.217,414.462 130.761,419.262 127.305,426.558C123.849,433.47 120.393,441.726 116.937,451.326C113.865,460.926 110.793,471.102 107.721,481.854C104.649,492.606 101.961,502.974 99.657,512.958C97.737,522.558 96.009,531.198 94.473,538.878C93.321,546.174 92.745,551.358 92.745,554.43ZM163.017,552.126C163.017,543.678 163.209,534.078 163.593,523.326C164.361,512.19 165.897,501.246 168.201,490.494C170.505,479.358 173.961,469.182 178.569,459.966C183.561,450.366 190.281,443.07 198.729,438.078L198.729,647.166C191.817,643.326 186.057,637.566 181.449,629.886C176.841,621.822 173.193,613.374 170.505,604.542C167.817,595.326 165.897,586.11 164.745,576.894C163.593,567.294 163.017,559.038 163.017,552.126Z" style="fill-rule:nonzero;"/>
        </g>
    </g>
</svg>
