<?xml version="1.0" encoding="UTF-8" standalone="no"?>
<!DOCTYPE svg PUBLIC "-//W3C//DTD SVG 1.1//EN" "http://www.w3.org/Graphics/SVG/1.1/DTD/svg11.dtd">
<svg width="100%" height="100%" viewBox="0 0 1080 1080" version="1.1" xmlns="http://www.w3.org/2000/svg" xmlns:xlink="http://www.w3.org/1999/xlink" xml:space="preserve" xmlns:serif="http://www.serif.com/" style="fill-rule:evenodd;clip-rule:evenodd;stroke-linejoin:round;stroke-miterlimit:2;">
    <g id="Desert">
        <g transform="matrix(1,0,0,1,23.25,24.5)">
            <ellipse cx="318.5" cy="260" rx="33.5" ry="41"/>
            <path d="M318.495,202.07C320.331,202.24 340.676,202.934 354.151,224.374C364.383,240.653 362.726,257.441 362.367,261.273C362.051,264.652 360.205,284.277 344.136,298.175C342.893,299.25 336.609,304.856 326.437,307.078C324.667,307.465 317.46,309.093 307.841,306.11C299.91,303.65 291.238,297.813 284.925,288.64C283.906,287.16 279.535,280.65 277.004,271.536C272.978,257.04 275.679,244.441 275.682,244.426C278.79,226.908 289.315,211.351 306.612,204.753C312.449,202.526 317.767,202.148 318.495,202.07ZM318.505,235.911C317.295,235.555 313.398,234.175 307.755,237.691C305.936,238.824 301.216,242.233 298.035,249.203C293.968,258.115 294.107,267.38 296.113,274.693C296.736,276.967 299.316,284.051 304.573,288.731C306.824,290.735 309.615,292.632 313.707,293.684C313.749,293.695 316.207,294.315 319.473,294.079C324.382,293.723 327.537,291.853 329.552,290.44C333.386,287.754 336.937,283.725 339.404,277.407C340.519,274.551 342.591,268.345 341.426,259.161C340.989,255.718 339.74,252.344 339.528,251.772C335.596,241.15 327.404,234.48 319.971,235.589C319.594,235.645 319.306,235.706 318.505,235.911Z"/>
        </g>
        <g transform="matrix(1,0,0,1,296.25,235.5)">
            <ellipse cx="318.5" cy="260" rx="33.5" ry="41"/>
            <path d="M318.495,202.07C320.331,202.24 340.676,202.934 354.151,224.374C364.383,240.653 362.726,257.441 362.367,261.273C362.051,264.652 360.205,284.277 344.136,298.175C342.893,299.25 336.609,304.856 326.437,307.078C324.667,307.465 317.46,309.093 307.841,306.11C299.91,303.65 291.238,297.813 284.925,288.64C283.906,287.16 279.535,280.65 277.004,271.536C272.978,257.04 275.679,244.441 275.682,244.426C278.79,226.908 289.315,211.351 306.612,204.753C312.449,202.526 317.767,202.148 318.495,202.07ZM318.505,235.911C317.295,235.555 313.398,234.175 307.755,237.691C305.936,238.824 301.216,242.233 298.035,249.203C293.968,258.115 294.107,267.38 296.113,274.693C296.736,276.967 299.316,284.051 304.573,288.731C306.824,290.735 309.615,292.632 313.707,293.684C313.749,293.695 316.207,294.315 319.473,294.079C324.382,293.723 327.537,291.853 329.552,290.44C333.386,287.754 336.937,283.725 339.404,277.407C340.519,274.551 342.591,268.345 341.426,259.161C340.989,255.718 339.74,252.344 339.528,251.772C335.596,241.15 327.404,234.48 319.971,235.589C319.594,235.645 319.306,235.706 318.505,235.911Z"/>
        </g>
        <g transform="matrix(1,0,0,1,-10.25,428.5)">
            <ellipse cx="318.5" cy="260" rx="33.5" ry="41"/>
            <path d="M318.495,202.07C320.331,202.24 340.676,202.934 354.151,224.374C364.383,240.653 362.726,257.441 362.367,261.273C362.051,264.652 360.205,284.277 344.136,298.175C342.893,299.25 336.609,304.856 326.437,307.078C324.667,307.465 317.46,309.093 307.841,306.11C299.91,303.65 291.238,297.813 284.925,288.64C283.906,287.16 279.535,280.65 277.004,271.536C272.978,257.04 275.679,244.441 275.682,244.426C278.79,226.908 289.315,211.351 306.612,204.753C312.449,202.526 317.767,202.148 318.495,202.07ZM318.505,235.911C317.295,235.555 313.398,234.175 307.755,237.691C305.936,238.824 301.216,242.233 298.035,249.203C293.968,258.115 294.107,267.38 296.113,274.693C296.736,276.967 299.316,284.051 304.573,288.731C306.824,290.735 309.615,292.632 313.707,293.684C313.749,293.695 316.207,294.315 319.473,294.079C324.382,293.723 327.537,291.853 329.552,290.44C333.386,287.754 336.937,283.725 339.404,277.407C340.519,274.551 342.591,268.345 341.426,259.161C340.989,255.718 339.74,252.344 339.528,251.772C335.596,241.15 327.404,234.48 319.971,235.589C319.594,235.645 319.306,235.706 318.505,235.911Z"/>
        </g>
        <g transform="matrix(1,0,0,1,453.25,535.5)">
            <ellipse cx="318.5" cy="260" rx="33.5" ry="41"/>
            <path d="M318.495,202.07C320.331,202.24 340.676,202.934 354.151,224.374C364.383,240.653 362.726,257.441 362.367,261.273C362.051,264.652 360.205,284.277 344.136,298.175C342.893,299.25 336.609,304.856 326.437,307.078C324.667,307.465 317.46,309.093 307.841,306.11C299.91,303.65 291.238,297.813 284.925,288.64C283.906,287.16 279.535,280.65 277.004,271.536C272.978,257.04 275.679,244.441 275.682,244.426C278.79,226.908 289.315,211.351 306.612,204.753C312.449,202.526 317.767,202.148 318.495,202.07ZM318.505,235.911C317.295,235.555 313.398,234.175 307.755,237.691C305.936,238.824 301.216,242.233 298.035,249.203C293.968,258.115 294.107,267.38 296.113,274.693C296.736,276.967 299.316,284.051 304.573,288.731C306.824,290.735 309.615,292.632 313.707,293.684C313.749,293.695 316.207,294.315 319.473,294.079C324.382,293.723 327.537,291.853 329.552,290.44C333.386,287.754 336.937,283.725 339.404,277.407C340.519,274.551 342.591,268.345 341.426,259.161C340.989,255.718 339.74,252.344 339.528,251.772C335.596,241.15 327.404,234.48 319.971,235.589C319.594,235.645 319.306,235.706 318.505,235.911Z"/>
        </g>
    </g>
</svg>
