<?xml version="1.0" encoding="UTF-8" standalone="no"?>
<!DOCTYPE svg PUBLIC "-//W3C//DTD SVG 1.1//EN" "http://www.w3.org/Graphics/SVG/1.1/DTD/svg11.dtd">
<svg width="100%" height="100%" viewBox="0 0 1080 1080" version="1.1" xmlns="http://www.w3.org/2000/svg" xmlns:xlink="http://www.w3.org/1999/xlink" xml:space="preserve" xmlns:serif="http://www.serif.com/" style="fill-rule:evenodd;clip-rule:evenodd;stroke-linejoin:round;stroke-miterlimit:2;">
    <g id="Fey">
        <path d="M530.5,284.077C543.426,284.401 600.924,285.439 654.917,338.981C704.941,388.588 734.266,465.593 728.895,550.3C724.96,612.361 701.943,670.616 664.411,712.788C645.505,734.033 619.846,755.409 584.431,767.747C515.072,791.911 460.183,761.204 449.031,754.973C435.752,747.553 378.237,714.247 348.011,627.466C320.217,547.669 336.351,477.109 339.202,464.5C357.295,384.506 407.556,319.54 474.911,294.66C500.968,285.035 522.169,284.312 530.5,284.077ZM530.055,317.906C529.846,317.905 529.633,317.902 529.415,317.897C485.163,317.014 442.806,337.905 410.076,375.438C379.701,410.27 358.218,458.78 353.101,515.238C351.802,529.564 344.617,608.233 391.879,680.864C409.573,708.055 431.998,729.804 458.337,744.394C482.297,757.666 504.16,760.84 504.757,760.944C532.696,765.823 558.598,762.043 579.728,754.448C614.475,741.96 656.027,711.509 683.376,654.439C711.04,596.713 715.146,529.05 699.474,469.965C681.038,400.46 636.375,346.274 580.846,326.222C558.577,318.18 540.193,317.711 530.484,317.923C530.322,317.927 530.18,317.923 530.055,317.906Z"/>
        <path d="M735.7,535.5C735.7,543.09 731.516,547.296 730.754,548.061C730.217,548.602 727.15,551.684 722.245,552.344C720.077,552.636 720.071,552.519 717.887,552.338C685.496,549.641 685.499,549.643 653.077,547.339C648.403,547.007 622.725,545.183 594.601,543.844C569.764,542.663 555.908,542.427 552.542,542.37C547.464,542.284 527.025,541.936 489.066,543.368C484.695,543.533 461.55,544.406 434.46,546.069C388.75,548.875 388.762,548.993 343.087,552.341C340.837,552.506 340.83,552.627 338.601,552.307C333.67,551.599 330.59,548.519 330.048,547.976C328.492,546.42 327.228,544.509 326.412,542.464C326,541.429 323.635,535.5 326.412,528.536C327.228,526.491 328.492,524.58 330.048,523.024C330.59,522.481 333.67,519.401 338.601,518.693C340.83,518.373 340.837,518.494 343.087,518.659C388.761,522.007 388.749,522.125 434.46,524.931C461.55,526.594 484.695,527.467 489.066,527.632C527.025,529.064 547.464,528.716 552.542,528.63C555.908,528.573 569.764,528.337 594.601,527.156C622.725,525.817 648.403,523.993 653.077,523.661C694.352,520.728 713.604,519.038 718.863,518.577C725.808,517.967 730.039,522.22 730.754,522.939C731.516,523.704 735.7,527.91 735.7,535.5Z"/>
    </g>
</svg>
