<?xml version="1.0" encoding="UTF-8" standalone="no"?>
<!DOCTYPE svg PUBLIC "-//W3C//DTD SVG 1.1//EN" "http://www.w3.org/Graphics/SVG/1.1/DTD/svg11.dtd">
<svg width="100%" height="100%" viewBox="0 0 1080 1080" version="1.1" xmlns="http://www.w3.org/2000/svg" xmlns:xlink="http://www.w3.org/1999/xlink" xml:space="preserve" xmlns:serif="http://www.serif.com/" style="fill-rule:evenodd;clip-rule:evenodd;stroke-linejoin:round;stroke-miterlimit:2;">
    <g id="Forest">
        <g transform="matrix(1.25738,0,0,1.64706,-231.319,-241.606)">
            <path d="M408.846,420.538C403.618,419.454 397.531,416.979 391.501,411.797C372.949,395.852 366.722,364.082 376.845,341.461C381.373,331.345 387.803,326.143 392.761,323.466C389.431,318.695 385.628,310.391 386.709,297.959C388.091,282.06 397.285,265.264 410.87,254.899C423.306,245.411 438.041,242.343 449.959,246.827C451.215,241.948 454.115,235.422 460.789,229.282C480.324,211.311 515.487,211.81 534.747,230.055C539.871,234.909 542.712,239.936 544.295,244.18C548.752,242.789 554.464,242.002 561.377,243.021C591.42,247.453 615.596,281.89 610.76,310.623C609.97,315.318 608.509,319.13 606.891,322.157C612.176,325.736 618.08,331.645 622.295,341.388C625.035,347.723 626.043,353.407 626.482,356.245C626.776,358.145 626.005,359.991 625.875,360.302C625.352,361.554 624.468,362.74 623.359,363.744C622.249,364.749 620.866,365.615 619.338,366.221C619.326,366.226 614.213,367.369 614.207,367.368C612.448,367.212 610.616,367.31 608.93,366.897C607.292,366.496 605.74,365.821 604.425,364.975C603.108,364.127 601.973,363.073 601.177,361.907C599.344,359.225 599.816,359.095 599.511,356.079C598.292,344.044 592.758,335.72 587.155,333.933C586.555,333.742 585.933,333.586 585.356,333.356C584.683,333.088 580.763,331.53 579.4,327.715C579.201,327.156 578.038,323.901 580.78,320.547C581.608,319.535 581.717,319.601 582.738,318.693C592.256,310.23 592.744,288.246 579.424,270.583C570.597,258.876 555.416,250.653 545.059,258.159C544.859,258.305 543.597,259.274 543.349,259.423C542.937,259.67 540.517,261.126 536.977,260.6C536.463,260.523 533.438,260.074 531.651,257.683C531.544,257.541 530.974,256.778 530.736,255.751C530.533,254.875 530.63,254.871 530.629,253.981C530.611,238.728 515.802,226.913 498.313,225.989C478.033,224.918 460.935,237.507 460.061,253.747C460.048,253.984 460.019,255.116 459.944,255.438C459.88,255.714 459.505,257.337 457.334,258.321C457.018,258.465 455.163,259.306 452.768,258.693C452.626,258.656 451.862,258.461 451.11,258.009C450.123,257.415 448.289,255.249 444.032,253.903C438.862,252.269 431.93,252.897 424.682,256.796C413.807,262.645 404.76,273.995 400.785,286.476C396.532,299.829 397.932,314.421 406.862,321.962C407.042,322.114 408.07,322.982 408.448,324.22C409.235,326.801 407.181,328.453 406.844,328.724C406.106,329.317 405.307,329.636 405.157,329.696C404.262,330.053 402.162,330.309 399.186,332.381C389.642,339.03 383.734,357.074 389.118,377.212C394.485,397.293 408.36,408.226 416.842,406.666C417.461,406.552 417.924,406.409 417.96,406.402C418.487,406.303 419.011,406.186 419.548,406.13C423.846,405.68 426.653,407.526 427.133,407.841C430.42,410.001 430.468,412.83 430.477,413.313C430.484,413.727 430.445,414.143 430.36,414.553C430.284,414.92 429.639,416.562 429.368,417.484C424.948,432.514 437.432,451.351 455.832,457.777C466.818,461.615 479.393,460.394 483.767,449.275C484.667,448.107 485.292,446.786 486.47,445.771C487.612,444.787 489.047,443.973 490.593,443.394C492.138,442.816 493.858,442.447 495.574,442.361C495.588,442.36 500.853,442.88 500.859,442.882C502.393,443.567 504.126,444.041 505.458,444.939C506.748,445.809 507.815,446.904 508.574,448.084C509.332,449.264 509.814,450.578 509.925,451.889C510.135,454.361 510.032,454.389 508.853,456.698C496.48,480.924 459.457,486.177 431.905,466.553C422.788,460.059 415.208,451.028 411.276,440.672C408.192,432.55 408.083,425.641 408.846,420.538Z"/>
        </g>
        <g transform="matrix(1.25738,0,0,1.64706,-231.319,-241.606)">
            <path d="M509.225,449.265C509.229,449.268 509.232,449.273 509.236,449.281C509.258,449.326 509.254,449.317 509.225,449.265ZM517,457.205C517.374,457.404 519.477,458.541 520.856,460.006C521.864,461.077 522.598,462.323 523.015,463.603C523.428,464.872 523.546,466.225 523.303,467.519C523.301,467.53 521.57,471.293 521.565,471.297C520.352,472.314 519.369,473.526 517.922,474.346C516.534,475.133 514.902,475.706 513.224,476.025C511.558,476.341 509.776,476.419 508.081,476.214C508.04,476.209 503.069,474.789 503.064,474.781C502.726,474.24 502.236,473.32 502.168,473.192C502.114,473.091 501.022,470.933 500.643,470.054C500.157,468.925 500.227,468.912 499.758,467.777C499.394,466.897 499.439,466.888 499.06,466.01C498.672,465.111 498.726,465.094 498.502,464.678C498.011,463.766 498.102,463.735 497.666,463.165C497.122,462.454 497.184,462.424 496.799,462.091C495.865,461.283 495.763,461.37 493.982,460.409C493.601,460.203 493.521,460.236 491.763,459.414C491.549,459.314 490.912,459.077 489.8,458.582C488.432,457.974 488.153,457.968 485.511,456.71C485.035,456.483 483.996,456.041 483.863,455.985C482.729,455.502 482.948,452.246 482.971,451.917C483.059,450.61 483.532,449.296 484.287,448.121C484.655,447.549 486.785,444.235 492.149,442.881C494.65,442.25 494.682,442.246 497.313,442.391C499.018,442.484 500.722,442.859 502.256,443.434C503.809,444.015 505.252,444.825 506.418,445.801C508.02,447.142 509.053,448.958 509.225,449.265C509.193,449.241 509.123,449.37 508.592,449.887C507.832,450.628 506.709,452.061 506.377,452.641C505.803,453.642 505.667,453.962 505.362,455.026C505.332,455.132 505.269,455.35 505.27,456.385C505.27,456.542 505.297,456.603 505.379,456.871C505.448,457.099 505.467,457.092 505.605,457.3C505.688,457.425 505.664,457.445 506.418,457.945C506.517,458.011 506.479,458.069 507.79,458.47C507.912,458.508 508.139,458.577 509.405,458.715C509.589,458.735 510.815,458.764 511.5,458.68C514.818,458.27 516.085,457.533 516.661,457.33C516.76,457.295 516.868,457.279 516.967,457.244C517.009,457.229 517.012,457.216 517,457.205ZM517,457.205C516.935,457.17 516.922,457.164 516.976,457.19C516.986,457.195 516.995,457.2 517,457.205Z"/>
        </g>
        <g transform="matrix(1,0,0,1,-121.028,-88.606)">
            <path d="M514,687.025C510.14,687.025 510.093,687.05 506.477,685.696C505.524,685.339 499.489,683.08 497.46,676.725C497.135,675.705 496.93,674.638 496.867,673.569C496.867,673.561 497.076,670.19 497.077,670.187C498.171,667.545 506.099,648.404 507.13,635.886C507.216,634.839 507.564,630.623 506.132,622.795C505.094,617.12 503.696,612.421 503.431,611.533C500.598,602.013 500.487,602.051 497.159,592.689C496.541,590.95 496.76,590.905 496.867,589.065C496.897,588.558 497.056,585.827 498.787,583.019C499.201,582.349 501.397,578.788 506.477,576.877C506.492,576.871 514.002,575.54 514.01,575.541C516.514,575.985 519.142,575.981 521.523,576.877C522.478,577.236 528.511,579.506 530.54,585.893C530.865,586.918 531.07,587.991 531.133,589.065C531.241,590.904 531.459,590.95 530.841,592.689C527.513,602.051 527.402,602.013 524.569,611.533C524.304,612.421 522.906,617.12 521.868,622.795C520.436,630.623 520.784,634.839 520.87,635.886C521.553,644.18 525.284,655.007 525.839,656.62C528.165,663.37 528.166,663.368 530.838,669.986C531.523,671.684 531.24,671.744 531.133,673.569C531.103,674.074 530.944,676.791 529.213,679.584C528.799,680.252 526.603,683.794 521.523,685.696C517.907,687.05 517.86,687.025 514,687.025Z"/>
        </g>
        <g transform="matrix(1,0,0,1,-121.028,-88.606)">
            <path d="M514,838.838C510.14,838.838 510.093,838.863 506.477,837.509C505.524,837.152 499.489,834.893 497.46,828.538C497.135,827.518 496.93,826.451 496.867,825.382C496.755,823.478 496.777,823.472 497.162,821.607C499.852,808.59 499.851,808.592 502.161,795.5C502.491,793.623 504.317,783.273 505.656,771.943C506.837,761.938 507.073,756.36 507.13,755.001C507.216,752.955 507.564,744.721 506.132,729.43C505.967,727.665 505.094,718.346 503.431,707.433C500.618,688.974 500.502,688.996 497.159,670.625C496.812,668.721 496.754,668.719 496.867,666.788C496.897,666.281 497.057,663.548 498.787,660.742C499.201,660.072 501.397,656.511 506.477,654.599C506.492,654.594 514.002,653.263 514.01,653.264C516.514,653.708 519.142,653.704 521.523,654.599C522.478,654.959 528.511,657.229 530.54,663.616C530.865,664.641 531.07,665.714 531.133,666.788C531.246,668.719 531.188,668.721 530.841,670.625C527.498,688.996 527.382,688.974 524.569,707.433C522.906,718.346 522.033,727.665 521.868,729.43C520.436,744.721 520.784,752.955 520.87,755.001C520.927,756.36 521.163,761.938 522.344,771.943C523.683,783.273 525.509,793.623 525.839,795.5C528.736,811.918 530.465,819.89 530.923,822C531.612,825.177 530.699,828.039 530.54,828.538C528.511,834.893 522.476,837.152 521.523,837.509C517.907,838.863 517.86,838.838 514,838.838Z"/>
        </g>
        <g transform="matrix(1.25738,0,0,1.64706,62.7372,-120.606)">
            <path d="M509.223,449.261C509.217,449.271 509.29,449.503 509.651,450.322C517.338,467.774 548.717,460.32 561.155,438.544C565.544,430.859 566.622,422.556 563.989,415.708C563.747,415.078 563.7,415.088 563.567,414.441C563.478,414.01 562.957,411.489 565.451,409.185C565.815,408.849 567.945,406.881 571.857,406.782C573.437,406.742 574.858,407.115 575.107,407.181C576.738,407.609 581.328,408.558 588.25,403.687C600.4,395.136 610.071,373.428 606.131,352.473C603.741,339.757 596.987,331.417 589.282,329.368C589.132,329.328 588.199,329.08 587.516,328.687C587.183,328.495 585.151,327.324 585.34,325.067C585.354,324.903 585.429,324.01 586.164,323.112C586.755,322.389 588.182,321.575 590.192,318.765C595.307,311.614 595.066,302.607 595.07,302.206C595.076,301.697 595.996,283.61 580.782,267.208C569.284,254.813 553.478,249.614 543.954,257.882C543.378,258.382 543.413,258.408 542.727,258.82C540.257,260.307 537.618,259.915 537.169,259.848C534.081,259.389 532.748,257.607 532.521,257.304C531.93,256.514 531.755,255.759 531.722,255.618C531.544,254.849 531.736,252.861 530.855,249.467C526.649,233.267 505.02,222.88 485.106,229.483C474.733,232.922 464.625,241.795 465.055,254.537C465.074,255.087 465.183,258.331 461.376,260.82C457.705,263.22 453.622,262.744 452.927,262.663C450.178,262.343 448.331,261.232 447.993,261.029C447.644,260.819 445.957,259.443 444.634,258.752C443.347,258.079 438.331,255.396 429.304,260.179C421.724,264.195 412.138,273.796 408.099,288.514C407.931,289.125 406.96,292.665 402.168,294.864C400.68,295.547 398.984,296.019 397.266,296.207C391.516,296.838 387.535,294.613 386.841,294.225C385.442,293.443 384.237,292.42 383.344,291.285C382.461,290.164 381.845,288.886 381.616,287.59C381.172,285.082 381.392,285.06 382.323,282.632C392.188,256.889 417.553,238.038 442.237,240.69C443.981,240.877 445.61,241.164 447.125,241.521C449.445,236.45 453.501,230.608 460.605,225.37C483.548,208.452 519.787,211.746 536.914,232.007C540.956,236.789 543.066,241.534 544.165,245.44C548.708,244.055 554.619,243.323 561.735,244.722C578.654,248.047 593.829,261.696 601.446,279.867C608.027,295.568 607.001,311.246 600.586,321.491C600.07,322.315 599.543,323.065 599.029,323.74C603.541,326.07 609.562,330.645 614.149,339.636C622.276,355.569 621.219,376.492 614.386,392.223C607.746,407.507 596.092,417.531 583.155,419.979C584.068,425.31 584.089,432.839 580.518,441.741C570.274,467.277 538.491,483.854 510.542,476.617C505.085,475.204 491.054,470.614 483.772,455.942C482.882,454.15 483.046,452.216 483.073,451.89C483.184,450.578 483.666,449.265 484.424,448.085C485.182,446.905 486.25,445.809 487.541,444.939C487.551,444.932 492.149,442.879 492.156,442.879C493.912,442.705 495.657,442.272 497.424,442.361C499.14,442.448 500.859,442.816 502.404,443.395C503.95,443.974 505.385,444.788 506.528,445.772C508.091,447.117 509.058,448.941 509.223,449.261ZM509.223,449.261C509.225,449.259 509.229,449.267 509.236,449.281C509.257,449.327 509.252,449.317 509.223,449.261Z"/>
        </g>
        <g transform="matrix(1.25738,0,0,1.64706,62.7372,-120.606)">
            <path d="M475.167,457.559C475.175,457.552 475.189,457.547 475.201,457.541C475.26,457.517 475.243,457.524 475.167,457.559ZM483.775,449.265C483.943,448.959 484.958,447.137 486.552,445.793C487.712,444.815 489.153,444.004 490.704,443.423C492.241,442.847 493.949,442.474 495.657,442.382C495.671,442.381 500.853,442.88 500.859,442.882C502.418,443.574 504.177,444.052 505.533,444.958C506.834,445.828 507.912,446.925 508.674,448.111C509.43,449.287 509.906,450.601 510,451.909C510.002,451.938 509.232,455.947 509.224,455.952C508.449,456.397 507.204,457.041 507.026,457.133C505.952,457.688 505.948,457.679 504.878,458.235C502.898,459.264 502.842,459.191 500.822,460.173C499.904,460.619 499.885,460.59 498.985,461.057C497.908,461.615 497.793,461.617 497.292,461.916C496.431,462.429 495.828,462.747 495.816,462.755C495.731,462.812 495.551,462.986 494.495,463.747C494.446,463.782 494.276,463.979 493.981,464.296C493.969,464.309 493.515,464.894 493.35,465.222C492.754,466.408 492.601,466.541 492.433,466.927C491.941,468.063 491.879,468.044 491.362,469.175C491.167,469.603 489.998,471.909 489.716,472.412C489.085,473.539 488.233,474.769 487.668,475.695C487.099,476.628 482.928,476.927 482.496,476.958C480.787,477.08 479.015,476.916 477.379,476.52C474.815,475.899 473.147,474.821 472.83,474.616C472.499,474.402 470.611,473.182 469.445,471.391C468.264,469.578 468.237,469.559 468.029,467.543C467.894,466.239 468.124,464.895 468.642,463.649C469.165,462.392 470.001,461.184 471.096,460.163C472.583,458.779 474.754,457.75 475.167,457.559C475.156,457.569 475.159,457.582 475.201,457.6C475.309,457.647 475.43,457.674 475.539,457.721C475.605,457.75 478.617,459.395 482.104,459.443C483.524,459.463 483.528,459.437 484.899,459.154C485.093,459.113 485.176,459.074 485.493,458.944C485.774,458.829 485.764,458.821 486,458.66C486.164,458.55 486.197,458.565 486.679,457.859C486.78,457.711 486.852,457.724 487.092,456.612C487.103,456.563 487.168,456.46 487.07,455.188C487.064,455.12 486.816,454.034 486.647,453.66C485.435,450.979 484.5,450.187 484.035,449.587C483.96,449.49 483.905,449.385 483.829,449.289C483.805,449.258 483.788,449.253 483.775,449.265ZM483.775,449.265C483.747,449.317 483.743,449.325 483.764,449.281C483.767,449.274 483.771,449.269 483.775,449.265Z"/>
        </g>
        <g transform="matrix(1,0,0,1,173.028,32.394)">
            <path d="M514,838.838C506.019,838.838 501.834,834.674 501.047,833.891C500.513,833.359 497.425,830.287 496.985,825.382C496.671,821.896 497.493,821.942 502.161,781.932C502.492,779.089 504.317,763.445 505.656,746.316C506.837,731.189 507.073,722.751 507.13,720.699C507.216,717.606 507.564,705.157 506.132,682.038C505.967,679.373 505.094,665.278 503.431,648.779C500.623,620.916 500.505,620.931 497.159,593.127C497.089,592.55 496.582,588.339 497.767,585.893C498.693,583.98 499.684,582.015 501.187,580.512C502.76,578.939 504.71,577.682 506.783,576.877C514,574.074 520.14,576.459 521.217,576.877C523.29,577.682 525.24,578.939 526.813,580.512C527.35,581.05 530.435,584.135 530.954,589.065C531.168,591.097 531.085,591.1 530.841,593.127C527.495,620.93 527.377,620.915 524.569,648.779C522.906,665.278 522.033,679.373 521.868,682.038C520.436,705.157 520.784,717.606 520.87,720.699C520.927,722.751 521.163,731.189 522.344,746.316C523.683,763.445 525.508,779.089 525.839,781.932C528.772,807.071 530.462,818.802 530.923,822C531.924,828.945 527.664,833.184 526.953,833.891C526.166,834.674 521.981,838.838 514,838.838Z"/>
        </g>
        <g transform="matrix(1.25738,0,0,1.64706,-84.2911,-17.394)">
            <path d="M402.81,336.979C402.463,337.231 400.592,338.56 398.449,339.274C396.87,339.801 395.119,340.079 393.397,340.11C391.678,340.14 389.915,339.925 388.31,339.454C388.297,339.451 383.81,337.298 383.806,337.293C382.79,336.18 381.476,335.194 380.76,333.952C380.066,332.749 379.699,331.413 379.659,330.098C379.619,328.785 379.904,327.438 380.524,326.212C381.695,323.898 381.708,323.842 384.174,322.224C384.759,321.841 385.334,321.482 385.897,321.147C383.619,315.742 382.037,308.177 383.67,298.37C385.362,288.204 389.625,280.393 389.944,279.76C390.112,279.427 392.919,273.479 398.909,266.223C398.951,266.172 402.34,261.836 408.375,256.802C411.048,254.573 414.534,252.015 419.977,249.279C420.421,249.055 424.987,246.737 430.406,245.478C438.925,243.499 445.033,244.797 446.367,245.067C446.952,245.185 447.52,245.317 448.072,245.46C448.982,241.077 451.027,235.614 455.487,230.109C456.7,228.612 466.006,216.119 487.676,211.842C489.594,211.464 492.319,211.008 495.999,210.727C498.232,210.557 500.86,211.366 501.257,211.488C502.853,211.98 504.335,212.742 505.562,213.662C506.791,214.584 507.816,215.704 508.491,216.914C508.497,216.924 509.601,220.912 509.6,220.917C509.261,222.24 509.25,223.638 508.583,224.886C507.935,226.102 506.934,227.23 505.73,228.166C504.522,229.104 503.059,229.889 501.476,230.409C498.789,231.292 498.77,231.552 495.878,231.228C484.049,229.906 474.47,234.968 469.599,239.463C463.486,245.106 462.264,250.835 461.899,252.527C461.583,253.992 461.462,255.55 461.441,255.64C461.359,255.992 460.879,258.062 458.109,259.317C457.706,259.5 455.339,260.572 452.287,259.789C452.105,259.743 451.131,259.493 450.173,258.916C449.141,258.295 449.258,258.208 448.419,257.434C448.094,257.134 442.786,251.743 432.515,253.922C427.118,255.066 423.385,257.424 421.367,258.79C417.08,261.691 414.476,264.583 413.971,265.144C413.418,265.758 410.359,269.157 407.956,273.249C406.787,275.24 404.317,280.039 403.005,284.962C400.819,293.167 401.414,298.903 401.77,301.544C402.049,303.614 403.288,311.982 408.882,317.147C410.375,318.526 411.31,318.965 411.44,319.094C411.854,319.504 412.297,319.9 412.656,320.339C415.518,323.837 414.307,327.234 414.099,327.817C412.679,331.798 408.59,333.427 407.888,333.706C407.286,333.946 406.636,334.107 406.011,334.309C405.97,334.323 404.711,334.888 403.179,336.58C403.064,336.707 403.064,336.705 402.948,336.834C402.888,336.901 402.824,336.963 402.81,336.979ZM402.81,336.979C402.874,336.933 402.886,336.923 402.841,336.96C402.811,336.984 402.803,336.988 402.81,336.979Z"/>
        </g>
        <g transform="matrix(1.25738,0,0,1.64706,-84.2911,-17.394)">
            <path d="M506.821,232.859C506.683,231.327 506.662,230.959 506.352,229.597C506.328,229.49 506.264,229.211 505.907,228.288C505.871,228.194 505.779,227.957 505.306,227.144C505.272,227.084 505.325,227.063 504.549,226.228C504.151,225.802 503.762,225.722 503.625,225.677C503.503,225.637 503.32,225.656 502.973,225.673C502.367,225.705 502.384,225.758 501.831,225.954C501.011,226.245 499.826,227.058 499.079,227.795C497.069,229.779 496.998,230.309 496.24,231.226C495.418,232.222 495.038,231.476 493.498,231.412C493.095,231.396 490.922,231.306 488.683,230.263C488.149,230.013 485.309,228.69 483.771,225.61C483.766,225.601 482.681,221.046 482.682,221.04C483.027,219.519 483.014,217.923 483.718,216.476C484,215.895 485.785,212.226 490.857,210.977C491.671,210.777 492.524,210.649 493.377,210.608C493.384,210.608 496.081,210.726 496.082,210.727C497.12,211.649 499.179,213.227 500.515,214.41C501.498,215.281 502.503,215.985 502.686,216.114C503.194,216.469 503.164,216.494 503.727,216.796C504.51,217.218 504.493,217.237 504.569,217.263C504.626,217.282 504.63,217.275 505.298,217.484C505.437,217.527 505.567,217.589 505.713,217.615C506.041,217.675 506.626,217.608 506.704,217.599C507.31,217.53 507.288,217.478 508.602,217.159C508.697,217.136 509.049,216.984 510.333,216.555C510.634,216.455 510.838,216.342 512.189,215.843C512.606,215.689 513.463,215.278 515.42,214.562C515.58,214.503 516.47,214.169 517.05,213.907C518.354,213.318 518.306,214.037 519.67,214.542C520.031,214.675 521.979,215.396 523.505,217.016C523.87,217.403 525.804,219.458 525.656,222.749C525.655,222.759 524.343,227.279 524.34,227.284C523.253,228.586 522.457,230.06 521.077,231.189C518.134,233.597 514.863,234.006 514.246,234.083C512.545,234.295 511.938,234.195 511.741,234.163C509.186,233.742 509.375,233.28 506.821,232.859Z"/>
        </g>
        <g transform="matrix(1.25738,0,0,1.64706,-84.2911,-17.394)">
            <path d="M506.769,232.841C505.304,232.078 503.623,231.513 502.378,230.549C501.168,229.613 500.2,228.465 499.546,227.249C498.892,226.034 498.524,224.7 498.525,223.387C498.525,223.377 499.551,219.405 499.555,219.401C500.552,218.277 501.286,216.988 502.549,216.032C503.772,215.107 505.274,214.366 506.867,213.867C508.459,213.368 510.208,213.088 511.929,213.091C515.162,213.096 515.216,213.124 518.1,214.242C528.408,218.235 535.925,224.273 540.783,230.671C544.02,234.934 545.911,239.11 547.007,242.744C552.235,241.868 558.639,241.952 566.041,244.237C577.514,247.78 589.013,256.694 596.693,269.631C598.185,272.144 602.163,278.561 604.586,289.342C604.895,290.713 606.401,297.043 605.711,305.576C605.703,305.675 605.37,310.842 603.518,316C602.431,319.026 601.065,321.487 599.773,323.392C604.512,325.788 610.819,330.443 615.767,339.444C622.668,351.999 622.83,365.275 622.891,366.715C623.574,382.909 618.49,398.597 609.674,409.469C608.718,410.649 608.792,410.696 607.523,411.687C604.759,413.846 601.337,414.25 600.736,414.32C599.006,414.524 597.186,414.457 595.492,414.123C594.627,413.953 589.705,412.983 586.472,409.088C585.531,407.954 584.883,406.645 584.612,405.319C584.519,404.861 583.985,402.248 585.898,399.614C586.939,398.181 587.12,398.281 588.503,397.032C598.303,388.183 603.691,373.463 604.305,361.491C605.105,345.904 599.11,336.782 595.081,333.273C591.598,330.24 588.843,329.833 587.984,329.49C587.571,329.325 585.052,328.319 584.72,325.807C584.509,324.212 585.453,323.059 585.621,322.853C586.641,321.607 590.186,319.813 592.925,313.212C595.638,306.675 595.084,300.274 594.996,299.108C594.388,291.049 591.927,285.561 590.989,283.486C587.251,275.211 582.433,269.741 578.444,266.026C569.354,257.564 557.759,253.377 550.187,256.676C547.52,257.838 546.016,259.632 545.85,259.755C545.443,260.056 545.055,260.376 544.611,260.643C541.049,262.788 537.242,262.226 536.594,262.13C532.138,261.472 530.21,258.903 529.882,258.465C529.026,257.326 528.772,256.238 528.724,256.034C528.509,255.116 528.757,245.898 518.96,238.457C513.735,234.489 508.434,233.23 506.769,232.841ZM506.769,232.841C506.771,232.843 506.774,232.844 506.776,232.845C506.772,232.844 506.758,232.839 506.754,232.838C506.759,232.839 506.764,232.84 506.769,232.841Z"/>
        </g>
        <g transform="matrix(1.25738,0,0,1.64706,-84.2911,-17.394)">
            <path d="M582.658,421.763C582.59,424.343 582.234,427.287 581.367,430.469C581.017,431.754 579.931,436.376 575.932,443.161C575.854,443.293 574.292,446.175 570.173,451.195C569.433,452.097 567.774,454.182 563.235,458.351C561.285,460.143 556.321,464.396 550.561,467.692C549.849,468.099 544.121,471.395 537.096,473.426C524.281,477.131 514.164,475.093 513.263,474.946C510.659,474.52 496.402,472.388 486.289,459.535C486.069,459.256 484.996,457.893 483.772,455.942C482.846,454.468 483.03,452.22 483.056,451.894C483.163,450.584 483.644,449.27 484.401,448.091C485.161,446.909 486.23,445.814 487.524,444.944C487.534,444.937 492.149,442.879 492.156,442.879C493.906,442.707 495.645,442.276 497.405,442.366C499.12,442.454 500.837,442.823 502.38,443.401C503.927,443.981 505.364,444.794 506.51,445.776C508.458,447.446 508.909,447.344 509.277,449.564C509.594,451.485 510.718,457.277 518.031,460.811C518.669,461.119 523.363,463.368 530.618,462.917C536.765,462.535 541.023,460.915 543.119,460.08C548.019,458.128 550.724,456.226 551.808,455.489C553.72,454.188 555.734,452.424 556.593,451.542C559.031,449.039 560.495,447.051 561.544,445.546C561.592,445.477 562.517,444.001 563.291,442.493C564.964,439.232 565.884,436.625 566.495,433.049C566.689,431.916 567.854,425.378 564.861,418.958C563.891,416.877 563.111,415.898 563.059,415.752C562.916,415.354 562.755,414.957 562.67,414.549C561.993,411.289 564.344,409.113 564.745,408.742C567.498,406.194 571.192,406.098 571.822,406.081C573.45,406.039 573.439,406.147 575.03,406.414C575.18,406.439 576.808,406.609 578.84,405.817C579.609,405.517 583.224,404.122 587.079,398.521C587.464,397.961 587.432,397.946 587.486,397.909C588.809,397.004 589.931,395.89 591.456,395.194C592.935,394.518 594.625,394.072 596.328,393.873C598.028,393.675 599.811,393.715 601.481,394.025C601.494,394.027 606.298,395.72 606.303,395.724C607.502,396.731 608.974,397.582 609.896,398.746C610.788,399.873 611.378,401.162 611.638,402.463C611.898,403.761 611.84,405.125 611.427,406.4C610.597,408.967 610.53,409.009 608.145,410.926C602.531,415.437 596.511,418.593 590.432,420.311C587.6,421.112 585.001,421.557 582.658,421.763Z"/>
        </g>
        <g transform="matrix(1.25738,0,0,1.64706,-84.2911,-17.394)">
            <path d="M413.457,418.792C409.517,418.637 404.542,417.706 398.933,414.968C385.954,408.633 378.051,395.661 378.05,395.66C377.144,394.289 370.001,384.23 366.854,368.216C366.602,366.935 366.387,365.68 366.109,363.677C365.88,362.02 366.986,359.976 367.149,359.674C367.806,358.46 368.817,357.336 370.034,356.407C371.252,355.477 372.728,354.704 374.32,354.2C374.333,354.196 379.569,353.388 379.576,353.389C381.306,353.659 383.136,353.68 384.764,354.2C386.35,354.706 387.819,355.479 389.034,356.407C390.253,357.337 391.268,358.461 391.936,359.674C393.168,361.911 393.28,361.955 392.911,364.367C392.651,366.063 391.366,373.852 393.612,383.919C394.099,386.1 395.741,393.439 401.11,400.419C402.619,402.38 406.917,407.083 412.116,408.649C416.369,409.93 419.16,409.003 420.047,408.91C420.435,408.87 422.703,408.633 424.732,409.969C425.029,410.164 426.762,411.304 426.795,413.349C426.81,414.226 426.376,415.064 426.304,415.204C426.216,415.373 424.667,418.047 424.075,422.334C423.855,423.924 423.823,426.591 424.085,428.334C425.117,435.203 428.005,439.711 428.44,440.432C428.784,441.003 430.695,444.173 433.529,447.261C433.934,447.702 438.347,452.477 444.55,455.985C452.908,460.711 459.558,461.404 461.181,461.574C463.551,461.823 477.019,463.213 482.416,452.912C483.364,451.103 483.766,449.276 483.767,449.275C484.671,448.108 485.3,446.788 486.48,445.774C487.624,444.79 489.06,443.977 490.607,443.398C492.151,442.819 493.869,442.45 495.585,442.363C495.598,442.363 500.853,442.88 500.859,442.882C502.396,443.568 504.133,444.042 505.467,444.941C506.759,445.811 507.827,446.907 508.586,448.088C509.344,449.267 509.825,450.581 509.934,451.892C510.152,454.506 510.079,454.551 508.651,456.933C499.778,471.731 481.805,478.489 463.895,476.321C446.012,474.157 434.206,463.926 432.546,462.552C432.221,462.283 425.967,457.402 420.627,449.009C420.609,448.98 417.756,444.801 415.418,438.143C414.956,436.828 413.521,432.818 413.118,426.485C412.934,423.584 413.127,420.97 413.457,418.792Z"/>
        </g>
        <g transform="matrix(1.25738,0,0,1.64706,-84.2911,-17.394)">
            <path d="M402.853,336.946C402.86,336.931 402.821,336.935 402.772,336.939C402.066,337.008 400.295,336.99 396.882,338.325C396.556,338.452 394.695,339.229 392.963,340.468C391.1,341.8 390.761,342.219 390.127,342.885C389.222,343.837 389.214,343.833 388.517,344.883C388.502,344.907 388.478,344.9 388.022,345.87C387.945,346.033 387.867,346.199 387.492,347.996C387.45,348.197 387.4,348.436 387.43,350.541C387.433,350.749 387.781,352.874 387.831,353.078C387.944,353.533 388.492,355.335 388.581,355.57C388.779,356.097 390.21,359.273 390.895,360.398C390.902,360.41 391.384,361.245 392.962,363.588C394.302,365.574 393.006,365.604 391.843,367.653C391.155,368.864 390.134,369.987 388.911,370.92C387.701,371.843 386.247,372.618 384.672,373.128C384.659,373.132 379.567,373.939 379.56,373.938C377.786,373.669 375.911,373.652 374.237,373.128C372.636,372.626 371.147,371.855 369.923,370.92C368.71,369.994 367.705,368.868 367.066,367.653C365.932,365.497 365.128,365.423 366.316,363.284C367.868,360.493 367.931,360.516 368.653,359.294C368.986,358.731 369.897,357.019 371.877,354.086C371.941,353.99 372.45,353.087 373.487,351.493C373.673,351.207 374.095,350.415 374.985,348.994C375.407,348.32 375.397,348.176 376.491,346.271C376.628,346.034 376.814,345.474 377.562,343.888C377.667,343.665 377.686,343.523 377.955,342.689C378.076,342.316 378.041,342.314 378.316,341.173C378.359,340.998 378.423,340.082 378.83,338.099C378.856,337.975 378.962,336.709 379.309,334.993C379.461,334.246 379.555,333.283 380,331.56C380.122,331.091 380.602,328.159 382.693,324.024C382.812,323.788 383.342,322.784 383.375,322.766C384.817,321.981 386.09,320.969 387.707,320.416C389.276,319.881 391.023,319.598 392.741,319.568C393.569,319.553 398.412,319.467 402.398,322.433C404.309,323.855 404.331,323.873 405.396,325.739C406.081,326.94 406.439,328.27 406.479,329.58C406.519,330.897 406.24,332.246 405.632,333.479C404.796,335.176 403.131,336.696 402.853,336.946ZM402.853,336.946C402.852,336.949 402.848,336.954 402.841,336.96C402.799,336.994 402.807,336.988 402.853,336.946Z"/>
        </g>
        <g transform="matrix(1,0,0,1,26,135.606)">
            <path d="M514,838.838C506.019,838.838 501.834,834.674 501.047,833.891C500.513,833.359 497.425,830.287 496.985,825.382C496.671,821.896 497.493,821.942 502.161,781.932C502.492,779.089 504.317,763.445 505.656,746.316C506.837,731.189 507.073,722.751 507.13,720.699C507.216,717.606 507.564,705.157 506.132,682.038C505.967,679.373 505.094,665.278 503.431,648.779C500.623,620.916 500.505,620.931 497.159,593.127C497.089,592.55 496.582,588.339 497.767,585.893C498.693,583.98 499.684,582.015 501.187,580.512C502.76,578.939 504.71,577.682 506.783,576.877C507.86,576.459 514,574.074 521.217,576.877C523.29,577.682 525.24,578.939 526.813,580.512C527.35,581.05 530.435,584.135 530.954,589.065C531.168,591.097 531.085,591.1 530.841,593.127C527.495,620.93 527.377,620.915 524.569,648.779C522.906,665.278 522.033,679.373 521.868,682.038C520.436,705.157 520.784,717.606 520.87,720.699C520.927,722.751 521.163,731.189 522.344,746.316C523.683,763.445 525.508,779.089 525.839,781.932C528.772,807.071 530.462,818.802 530.923,822C531.924,828.945 527.664,833.184 526.953,833.891C526.166,834.674 521.981,838.838 514,838.838Z"/>
        </g>
    </g>
</svg>
