<?xml version="1.0" encoding="UTF-8" standalone="no"?>
<!DOCTYPE svg PUBLIC "-//W3C//DTD SVG 1.1//EN" "http://www.w3.org/Graphics/SVG/1.1/DTD/svg11.dtd">
<svg width="100%" height="100%" viewBox="0 0 1080 1080" version="1.1" xmlns="http://www.w3.org/2000/svg" xmlns:xlink="http://www.w3.org/1999/xlink" xml:space="preserve" xmlns:serif="http://www.serif.com/" style="fill-rule:evenodd;clip-rule:evenodd;stroke-linejoin:round;stroke-miterlimit:2;">
    <g transform="matrix(1,0,0,1,174.726,252.089)">
        <g id="Gemstone">
            <path d="M168.57,301.447C168.57,305.671 169.914,312.583 172.602,322.183C175.674,331.783 179.322,342.535 183.546,354.439C188.154,365.959 193.146,378.055 198.522,390.727C203.898,403.399 209.082,415.303 214.074,426.439C219.45,437.191 224.25,446.407 228.474,454.087C233.082,461.383 236.538,465.799 238.842,467.335C247.674,472.711 255.738,476.935 263.034,480.007C270.33,483.079 277.242,485.767 283.77,488.071C290.682,490.375 297.402,492.679 303.93,494.983C310.842,496.903 318.138,499.399 325.818,502.471C331.194,504.391 335.418,506.887 338.49,509.959C341.946,513.031 345.21,516.103 348.282,519.175C351.354,521.863 354.81,524.167 358.65,526.087C362.49,528.007 367.674,528.967 374.202,528.967C378.81,528.967 382.842,528.391 386.298,527.239C390.138,525.703 393.786,524.167 397.242,522.631C401.082,521.095 404.922,519.943 408.762,519.175C412.986,518.407 417.402,518.599 422.01,519.751C431.61,512.455 444.282,502.855 460.026,490.951C475.77,478.663 491.13,465.223 506.106,450.631C521.466,435.655 534.522,419.911 545.274,403.399C556.41,386.887 561.978,370.375 561.978,353.863C561.978,353.095 561.786,351.751 561.402,349.831L561.402,345.223C553.722,325.639 546.618,307.783 540.09,291.655C533.562,275.527 525.498,261.703 515.898,250.183C506.682,238.663 494.97,229.831 480.762,223.687C466.554,217.159 448.314,213.895 426.042,213.895C419.13,213.895 412.41,214.855 405.882,216.775C399.354,218.695 392.826,220.807 386.298,223.111C380.154,225.415 373.818,227.527 367.29,229.447C361.146,231.367 354.618,232.327 347.706,232.327L343.674,232.327L378.234,179.911C381.69,180.295 387.45,180.679 395.514,181.063L447.93,181.063C456.378,180.679 462.138,180.295 465.21,179.911C467.13,179.527 469.818,178.759 473.274,177.607C477.114,176.071 480.954,174.343 484.794,172.423C488.634,170.503 491.898,168.775 494.586,167.239C497.658,165.319 499.578,163.783 500.346,162.631C501.882,159.943 503.418,155.911 504.954,150.535C506.874,144.775 508.218,139.207 508.986,133.831C509.754,128.071 510.138,123.079 510.138,118.855C510.522,114.247 510.138,111.367 508.986,110.215L500.346,101.575C497.274,101.575 492.09,101.767 484.794,102.151L436.986,102.151C429.69,101.767 424.698,101.575 422.01,101.575C421.242,101.575 419.514,101.191 416.826,100.423C414.522,99.271 411.834,98.311 408.762,97.543C405.69,96.391 402.81,95.431 400.122,94.663C397.818,93.511 396.282,92.743 395.514,92.359L390.906,92.359C387.066,92.359 382.458,94.087 377.082,97.543C371.706,100.999 366.138,105.031 360.378,109.639C355.002,114.247 349.818,119.047 344.826,124.039C340.218,129.031 336.762,133.063 334.458,136.135L334.458,46.855C331.386,46.855 327.354,47.239 322.362,48.007C317.37,48.775 312.57,50.119 307.962,52.039C303.354,53.959 299.322,56.455 295.866,59.527C292.41,62.599 290.682,66.439 290.682,71.047L290.682,73.351C291.066,74.503 291.258,75.079 291.258,75.079C291.642,76.231 292.602,78.151 294.138,80.839C296.058,83.143 297.786,85.831 299.322,88.903C301.242,91.591 302.97,94.087 304.506,96.391C306.426,98.695 307.77,100.423 308.538,101.575C301.626,110.407 291.45,119.431 278.01,128.647C264.57,137.863 250.938,147.079 237.114,156.295C223.674,165.511 211.77,175.111 201.402,185.095C191.418,194.695 186.426,204.487 186.426,214.471C186.426,215.239 187.77,216.775 190.458,219.079C193.146,221.383 194.682,222.727 195.066,223.111C195.45,223.495 195.642,224.263 195.642,225.415L195.642,227.719C195.642,233.863 194.106,239.815 191.034,245.575C188.346,251.335 185.274,257.095 181.818,262.855C178.746,268.615 175.674,274.759 172.602,281.287C169.914,287.431 168.57,294.151 168.57,301.447ZM307.962,420.103C307.962,406.279 310.074,392.071 314.298,377.479C318.522,362.887 324.09,348.871 331.002,335.431C338.298,321.991 346.746,309.319 356.346,297.415C365.946,285.511 376.122,275.335 386.874,266.887C390.33,269.191 393.21,269.575 395.514,268.039C398.202,266.119 400.89,263.815 403.578,261.127C406.266,258.055 408.954,255.175 411.642,252.487C414.714,249.799 417.978,248.455 421.434,248.455C423.738,248.455 426.81,250.951 430.65,255.943C434.874,260.935 439.29,267.463 443.898,275.527C448.506,283.591 453.114,292.615 457.722,302.599C462.33,312.199 466.554,321.799 470.394,331.399C474.234,340.615 477.306,349.255 479.61,357.319C482.298,365.383 483.642,371.527 483.642,375.751C483.642,389.191 480.954,401.671 475.578,413.191C470.586,424.327 463.674,434.119 454.842,442.567C446.394,450.631 436.218,456.967 424.314,461.575C412.41,466.183 399.93,468.487 386.874,468.487C381.498,468.487 374.202,467.335 364.986,465.031C356.154,462.343 347.514,458.887 339.066,454.663C330.618,450.439 323.322,445.447 317.178,439.687C311.034,433.543 307.962,427.015 307.962,420.103ZM246.906,288.775C246.906,281.479 247.482,272.647 248.634,262.279C249.786,251.527 251.706,240.775 254.394,230.023C257.082,219.271 260.73,209.479 265.338,200.647C269.946,191.431 275.706,184.519 282.618,179.911L282.618,388.999C271.098,373.255 262.266,357.511 256.122,341.767C249.978,326.023 246.906,308.359 246.906,288.775Z" style="fill-rule:nonzero;"/>
        </g>
    </g>
</svg>
