<?xml version="1.0" encoding="UTF-8" standalone="no"?>
<!DOCTYPE svg PUBLIC "-//W3C//DTD SVG 1.1//EN" "http://www.w3.org/Graphics/SVG/1.1/DTD/svg11.dtd">
<svg width="100%" height="100%" viewBox="0 0 1080 1080" version="1.1" xmlns="http://www.w3.org/2000/svg" xmlns:xlink="http://www.w3.org/1999/xlink" xml:space="preserve" xmlns:serif="http://www.serif.com/" style="fill-rule:evenodd;clip-rule:evenodd;stroke-linejoin:round;stroke-miterlimit:2;">
    <g id="Glimmering">
        <g transform="matrix(1,0,0,1,-22,-107)">
            <path d="M562,442L717,754L407,754L562,442Z"/>
            <path d="M577.156,434.471C593.686,469.864 610.044,505.336 626.574,540.73C647.165,584.818 667.814,628.88 688.519,672.916C699.544,696.365 710.675,719.764 721.764,743.182C725.015,750.048 725.153,749.997 725.526,751.439C725.67,751.997 726.52,755.279 724.317,758.535C724.005,758.996 722.169,761.711 718.401,762.196C717.937,762.255 717.467,762.261 717,762.256C708.036,762.152 699.074,761.967 690.11,761.868C663.012,761.567 635.915,761.245 608.816,761.054C544.227,760.597 503.919,760.82 494.798,760.87C481.102,760.946 467.406,761.047 453.71,761.193C406.466,761.694 406.228,762.526 403.13,760.951C399.894,759.306 399.112,756.277 398.979,755.762C398.923,755.546 398.652,754.496 398.747,752.984C398.764,752.717 398.84,752.456 398.884,752.192C399.052,751.185 399.002,751.168 399.437,750.243C410.703,726.3 422.109,702.424 433.38,678.484C445.001,653.801 456.589,629.102 468.113,604.374L545.686,436.994C546.074,436.153 546.409,435.287 546.844,434.471C547.296,433.622 547.776,432.781 548.344,432.005C551.896,427.152 556.836,425.858 557.713,425.629C558.591,425.399 563.531,424.105 569.006,426.595C569.881,426.993 570.726,427.468 571.521,428.009C572.316,428.55 573.127,429.105 573.76,429.83C575.019,431.275 575.896,433.026 577.156,434.471ZM561.883,478.13C558.438,484.569 554.996,491.01 551.571,497.459C530.787,536.591 510.81,576.16 489.32,614.909C463.777,660.965 436.036,705.779 410.494,751.835C438.619,750.779 466.673,748.185 494.798,747.13C507.464,746.655 520.147,747.265 532.821,747.244C558.153,747.203 583.491,746.346 608.816,746.946C643.563,747.77 678.24,750.69 712.987,751.513L705.501,751.261L561.883,478.13Z"/>
        </g>
        <g transform="matrix(-1,-1.22465e-16,1.22465e-16,-1,1102,1187)">
            <path d="M562,442L717,754L407,754L562,442Z"/>
            <path d="M577.156,434.471C593.686,469.864 610.044,505.336 626.574,540.73C647.165,584.818 667.814,628.88 688.519,672.916C699.544,696.365 710.675,719.764 721.764,743.182C725.015,750.048 725.153,749.997 725.526,751.439C725.67,751.997 726.52,755.279 724.317,758.535C724.005,758.996 722.169,761.711 718.401,762.196C717.937,762.255 717.467,762.261 717,762.256C708.036,762.152 699.074,761.967 690.11,761.868C663.012,761.567 635.915,761.245 608.816,761.054C544.227,760.597 503.919,760.82 494.798,760.87C481.102,760.946 467.406,761.047 453.71,761.193C406.466,761.694 406.228,762.526 403.13,760.951C399.894,759.306 399.112,756.277 398.979,755.762C398.923,755.546 398.652,754.496 398.747,752.984C398.764,752.717 398.84,752.456 398.884,752.192C399.052,751.185 399.002,751.168 399.437,750.243C410.703,726.3 422.109,702.424 433.38,678.484C445.001,653.801 456.589,629.102 468.113,604.374L545.686,436.994C546.074,436.153 546.409,435.287 546.844,434.471C547.296,433.622 547.776,432.781 548.344,432.005C551.896,427.152 556.836,425.858 557.713,425.629C558.591,425.399 563.531,424.105 569.006,426.595C569.881,426.993 570.726,427.468 571.521,428.009C572.316,428.55 573.127,429.105 573.76,429.83C575.019,431.275 575.896,433.026 577.156,434.471ZM561.883,478.13C558.438,484.569 554.996,491.01 551.571,497.459C530.787,536.591 510.81,576.16 489.32,614.909C463.777,660.965 436.036,705.779 410.494,751.835C438.619,750.779 466.673,748.185 494.798,747.13C507.464,746.655 520.147,747.265 532.821,747.244C558.153,747.203 583.491,746.346 608.816,746.946C643.563,747.77 678.24,750.69 712.987,751.513L705.501,751.261L561.883,478.13Z"/>
        </g>
    </g>
</svg>
