<?xml version="1.0" encoding="UTF-8" standalone="no"?>
<!DOCTYPE svg PUBLIC "-//W3C//DTD SVG 1.1//EN" "http://www.w3.org/Graphics/SVG/1.1/DTD/svg11.dtd">
<svg width="100%" height="100%" viewBox="0 0 1080 1080" version="1.1" xmlns="http://www.w3.org/2000/svg" xmlns:xlink="http://www.w3.org/1999/xlink" xml:space="preserve" xmlns:serif="http://www.serif.com/" style="fill-rule:evenodd;clip-rule:evenodd;stroke-linejoin:round;stroke-miterlimit:2;">
    <g transform="matrix(1,0,0,1,60.5,157.051)">
        <g id="Haunted">
            <path d="M600.255,618.264C599.256,618 593.531,616.491 589.99,610.424C588.899,608.553 588.136,606.439 587.835,604.294C587.189,599.695 587.596,599.665 588.9,595.209C616.344,501.466 608.844,412.063 607.897,399.695C606.362,379.635 602.399,339.77 588.93,295.793C570.211,234.676 544.45,206.906 539.598,201.601C517.279,177.2 497.259,172.306 486.111,171.188C482.696,170.845 465.432,168.894 445.329,180.595C413.061,199.378 393.443,239.71 389.769,247.125C360.191,306.83 353.657,374.304 351.844,396.209C346.197,464.447 354.173,517.578 356.466,532.48C362.49,571.614 370.781,597.048 370.81,597.603C370.929,599.833 371.478,602.081 371.168,604.293C370.867,606.438 370.105,608.553 369.013,610.423C367.923,612.291 366.459,613.993 364.741,615.306C364.727,615.317 358.744,618.266 358.735,618.266C356.503,618.394 354.253,618.952 352.037,618.647C349.891,618.352 347.775,617.592 345.904,616.5C344.035,615.41 342.334,613.942 341.024,612.22C338.635,609.08 338.716,608.976 337.826,605.135C334.529,590.899 321.236,533.221 324.178,452.208C324.929,431.515 328.437,347.703 361.411,268.525C387.192,206.618 417.129,183.131 424.843,177.226C452.331,156.184 483.646,150.524 515.065,165.694C560.948,187.848 587.545,246.871 593.862,261.154C612.265,302.765 620.379,341.865 623.622,358.245C626.585,373.213 637.859,431.923 634.232,507.179C631.754,558.62 623.334,595.646 620.928,606.191C620.227,609.263 618.304,611.793 617.979,612.22C616.669,613.943 614.968,615.411 613.099,616.501C607.022,620.047 601.258,618.528 600.255,618.264Z"/>
        </g>
    </g>
</svg>
