<?xml version="1.0" encoding="UTF-8" standalone="no"?>
<!DOCTYPE svg PUBLIC "-//W3C//DTD SVG 1.1//EN" "http://www.w3.org/Graphics/SVG/1.1/DTD/svg11.dtd">
<svg width="100%" height="100%" viewBox="0 0 1080 1080" version="1.1" xmlns="http://www.w3.org/2000/svg" xmlns:xlink="http://www.w3.org/1999/xlink" xml:space="preserve" xmlns:serif="http://www.serif.com/" style="fill-rule:evenodd;clip-rule:evenodd;stroke-linejoin:round;stroke-miterlimit:2;">
    <g transform="matrix(1,0,0,1,17.3588,51.9449)">
        <g id="Hills">
            <path d="M969.671,622.443C969.529,620.215 968.959,617.972 969.247,615.758C969.528,613.61 970.27,611.489 971.344,609.609C974.816,603.533 980.551,601.949 981.547,601.673C982.546,601.397 988.259,599.818 994.392,603.323C1000.71,606.931 1002.18,612.949 1002.44,613.987C1011,648.907 983.044,676.065 944.267,676.624C908.328,677.142 868.911,654 859.156,602.215C855.732,584.043 845.463,537.714 798.236,479.144C787.134,465.376 759.989,434.023 718.63,402.591C671.178,366.527 631.628,349.114 622.067,344.896C604.281,337.048 565.218,321.368 529.965,321.542C513.312,321.625 496.781,324.627 488.556,326.257C469.344,330.067 449.152,336.639 445.783,337.735C364.274,364.266 306.594,406.915 299.814,411.831C236.234,457.934 198.957,509.611 199.611,557.407C199.678,562.311 201.09,574.299 196.646,588.252C184.757,625.577 143.031,638.737 103.045,632.611C72.739,627.968 44.418,612.162 41.186,586.922C40.307,580.055 44.149,575.253 44.798,574.441C46.151,572.751 47.851,571.281 49.746,570.233C49.761,570.225 56.133,568.179 56.141,568.179C58.358,568.38 60.654,568.159 62.791,568.784C64.867,569.391 66.845,570.453 68.534,571.804C70.225,573.157 71.696,574.856 72.748,576.75C73.009,577.22 74.893,580.612 74.817,583.15C74.813,583.288 74.814,583.412 74.83,583.551L74.825,583.552C75.849,587.383 81.988,592.451 90.735,596.368C115.446,607.433 154.734,607.405 167.972,585.5C174.31,575.013 173.271,563.703 173.372,558.07C174.378,501.883 215.321,452.419 263.648,414.499C324.109,367.057 392.254,341.104 400.316,337.907C476.077,307.867 522.29,307.853 526.49,307.773C531.166,307.684 550.719,306.918 585.138,316.813C620.003,326.836 661.98,345.896 702.518,371.79C755.892,405.882 789.409,440.517 795.221,446.445C841.971,494.128 872.218,545.126 884.198,595.975C885.818,602.853 892.22,631.331 920.225,642.524C939.932,650.401 961.318,645.131 968.32,635.1C971.446,630.622 970.833,626.171 969.671,622.443Z"/>
        </g>
    </g>
</svg>
