<?xml version="1.0" encoding="UTF-8" standalone="no"?>
<!DOCTYPE svg PUBLIC "-//W3C//DTD SVG 1.1//EN" "http://www.w3.org/Graphics/SVG/1.1/DTD/svg11.dtd">
<svg width="100%" height="100%" viewBox="0 0 1080 1080" version="1.1" xmlns="http://www.w3.org/2000/svg" xmlns:xlink="http://www.w3.org/1999/xlink" xml:space="preserve" xmlns:serif="http://www.serif.com/" style="fill-rule:evenodd;clip-rule:evenodd;stroke-linejoin:round;stroke-miterlimit:2;">
    <g id="Infernal" transform="matrix(1,0,0,1,0,-26)">
        <g transform="matrix(1.14201,0,0,1.04712,-81.2544,17.4869)">
            <path d="M557.346,300.977C575.156,343.306 592.815,385.709 610.625,428.038L713.083,670.235C715.369,675.605 717.717,680.945 719.977,686.329C720.185,686.824 721.394,689.703 719.969,693.144C719.769,693.628 718.593,696.469 715.424,697.553C715.237,697.617 714.332,697.927 713,697.913C702.589,697.807 692.178,697.617 681.766,697.514C652.559,697.225 623.351,696.919 594.142,696.736C524.524,696.3 481.077,696.513 471.245,696.561C423.121,696.796 423.126,696.986 375,697.469C374.461,697.475 371.114,697.508 369.017,694.097C368.707,693.594 366.862,690.592 368.443,686.549C368.747,685.772 369.103,685.021 369.429,684.254L445.727,504.112L529.403,303.992C529.821,302.988 530.191,301.958 530.654,300.977C531.043,300.152 531.461,299.337 531.957,298.583C532.424,297.872 535.06,293.863 540.208,292.376C540.795,292.207 544,291.282 547.792,292.376C548.185,292.49 550.288,293.097 552.413,294.696C553.114,295.223 553.828,295.763 554.382,296.468C555.485,297.873 556.243,299.572 557.346,300.977ZM543.945,343.586C539.387,353.282 534.828,362.977 530.291,372.686C508.299,419.754 486.263,466.798 464.402,513.939C437.534,571.875 410.961,629.973 384.104,687.915C398.409,686.619 412.617,683.89 426.958,683.131C441.703,682.351 456.483,683.367 471.245,683.439C484.906,683.506 498.568,683.568 512.229,683.548C539.534,683.509 566.843,682.701 594.142,683.264C632.615,684.056 671.039,686.819 709.511,687.611C694.182,656.141 675.992,626.395 660.663,594.925C635.705,543.689 612.732,491.334 588.693,439.579C573.82,407.558 558.859,375.585 543.945,343.586Z"/>
        </g>
        <path d="M749.838,792C749.838,799.576 745.652,803.782 744.891,804.547C744.354,805.087 741.287,808.169 736.382,808.838C734.201,809.135 734.195,809.016 732.001,808.838C698.824,806.141 698.827,806.143 665.62,803.839C660.832,803.507 634.531,801.683 605.726,800.344C580.287,799.163 566.095,798.927 562.647,798.87C557.446,798.784 536.511,798.436 497.631,799.868C493.155,800.033 469.448,800.906 441.702,802.569C394.884,805.375 394.896,805.493 348.114,808.841C345.851,809.003 345.844,809.127 343.601,808.802C338.67,808.086 335.591,805.006 335.048,804.464C333.492,802.908 332.228,800.998 331.412,798.955C331,797.921 328.636,792 331.412,785.045C332.228,783.002 333.492,781.092 335.048,779.536C335.591,778.994 338.67,775.914 343.601,775.198C345.844,774.873 345.851,774.997 348.114,775.159C394.895,778.507 394.883,778.625 441.702,781.431C469.448,783.094 493.155,783.967 497.631,784.132C536.511,785.564 557.446,785.216 562.647,785.13C566.095,785.073 580.287,784.837 605.726,783.656C634.531,782.317 660.832,780.493 665.62,780.161C707.895,777.228 727.614,775.538 733,775.077C739.945,774.482 744.177,778.734 744.891,779.453C745.652,780.218 749.838,784.424 749.838,792Z"/>
    </g>
</svg>
