<?xml version="1.0" encoding="UTF-8" standalone="no"?>
<!DOCTYPE svg PUBLIC "-//W3C//DTD SVG 1.1//EN" "http://www.w3.org/Graphics/SVG/1.1/DTD/svg11.dtd">
<svg width="100%" height="100%" viewBox="0 0 1080 1080" version="1.1" xmlns="http://www.w3.org/2000/svg" xmlns:xlink="http://www.w3.org/1999/xlink" xml:space="preserve" xmlns:serif="http://www.serif.com/" style="fill-rule:evenodd;clip-rule:evenodd;stroke-linejoin:round;stroke-miterlimit:2;">
    <g transform="matrix(1,0,0,1,29,-8)">
        <path d="M335.993,419.459C335.87,416.129 334.09,413.942 333.737,413.508C332.609,412.124 331.318,411.352 331.076,411.208C330.569,410.905 330.05,410.597 329.481,410.435C328.345,410.113 327.137,410.091 326,409.769L474.402,408.648C471.265,404.898 466.692,399.38 459.679,390.94L369.599,303.359C370.897,304.122 371.98,305.216 373.279,305.978C373.932,306.362 374.679,306.571 375.41,306.773C381.308,308.401 385.63,305.423 386.362,304.918C386.668,304.707 386.958,304.49 387.232,304.267C384.479,300.989 381.643,297.613 378.721,294.135C382.179,297.094 385.54,299.968 388.805,302.758C391.634,299.55 391.975,295.95 392.044,295.226C392.267,292.874 391.766,290.947 391.672,290.587C391.475,289.831 391.273,289.058 390.887,288.379C390.115,287.021 388.998,285.88 388.227,284.522L490.523,383.936C490.041,336.624 489.559,289.312 489.077,242L522.923,242L521.478,383.675C555.541,350.588 589.513,317.408 623.601,284.348C624.266,283.703 628.188,279.9 634.543,280.562C635.342,280.645 639.571,281.086 642.985,284.706C644.628,286.371 645.406,288.016 645.618,288.465C648.335,294.21 646.059,299.161 645.673,299.999C645.514,300.346 644.682,302.154 642.957,303.922C638.619,308.368 634.186,312.72 629.807,317.124C623.393,323.574 563.33,383.976 539.195,408.244C588.747,408.749 638.301,408.921 687.852,409.496C688.471,409.504 689.06,409.782 689.639,410.002C689.914,410.107 691.298,410.633 692.805,411.89C693.124,412.157 693.384,412.487 693.674,412.785C694.106,413.229 696.524,415.713 696.473,420C696.464,420.704 696.415,424.865 692.661,427.938C692.438,428.12 691.25,429.093 689.529,429.696C688.964,429.894 688.387,430.141 687.788,430.139C645.809,430.025 603.83,429.644 561.852,429.409C543.979,430.819 535.588,431.505 530.822,431.79C566.891,467.877 603.04,503.884 639.101,539.978C639.494,540.372 641.805,542.684 641.441,546.533C641.39,547.081 641.084,550.32 637.962,552.474C637.513,552.783 634.865,554.61 631.25,553.613C630.931,553.525 629.244,553.06 627.685,551.522L538.019,462.184C522.893,448.942 516.422,443.226 513.273,440.046L512.917,598C512.916,598.467 512.909,601.217 510.431,603.28C510.073,603.578 507.963,605.334 504.807,604.764C504.351,604.682 501.659,604.196 500.073,601.422C499.932,601.176 499.171,599.846 499.171,598L499.134,454.599C498.776,446.668 498.636,442.182 498.682,439.371C495.759,442.357 489.467,447.954 473.717,461.844L384,551.204C380.896,554.293 377.296,553.354 376.711,553.201C373.265,552.302 371.957,549.542 371.735,549.075C370.193,545.823 371.48,543.017 371.698,542.542C372.28,541.273 373.082,540.471 373.235,540.318C409.65,503.878 446.149,467.521 482.57,431.088C472.642,430.386 462.714,429.684 452.785,428.981L326,429.79C327.101,429.51 328.263,429.522 329.364,429.242C329.918,429.101 330.429,428.816 330.929,428.537C331.513,428.209 334.95,426.283 335.817,421.731C335.884,421.38 335.931,421.037 335.96,420.704C332.64,420.469 329.32,420.234 326,420C329.405,419.816 332.736,419.636 335.993,419.459ZM505.59,425.91C506.375,425.41 507.202,424.985 508.06,424.638C508.119,424.317 508.188,423.998 508.265,423.682C507.403,423.474 506.553,423.217 505.718,422.912C504.9,423.195 504.064,423.433 503.215,423.622C503.323,424.044 503.415,424.472 503.49,424.903C504.216,425.184 504.919,425.521 505.59,425.91Z"/>
    </g>
    <g transform="matrix(1,0,0,1,29,-8)">
        <path d="M506,777.838C498.346,777.838 494.144,773.657 493.375,772.891C492.835,772.355 489.752,769.287 489.128,764.382C488.857,762.258 488.966,762.253 489.162,760.118C491.858,730.811 491.857,730.814 494.161,701.475C494.493,697.246 496.317,674.011 497.656,648.563C498.837,626.09 499.073,613.553 499.13,610.507C499.216,605.912 499.564,587.418 498.132,553.071C497.967,549.116 497.094,528.173 495.431,503.661C492.625,462.298 492.507,462.311 489.159,420.984C489.109,420.378 488.745,415.881 489.978,413.429C490.938,411.519 491.957,409.56 493.469,408.048C495.028,406.489 496.945,405.226 498.995,404.412C506,401.631 511.964,403.999 513.005,404.412C515.055,405.226 516.972,406.489 518.531,408.048C519.073,408.59 522.154,411.67 522.831,416.601C523.131,418.783 523.019,418.789 522.841,420.984C519.493,462.309 519.375,462.297 516.569,503.661C514.906,528.173 514.033,549.116 513.868,553.071C512.436,587.418 512.784,605.912 512.87,610.507C512.927,613.553 513.163,626.09 514.344,648.563C515.683,674.011 517.507,697.246 517.839,701.475C520.772,738.822 522.462,756.243 522.923,761C523.597,767.945 519.343,772.178 518.625,772.891C517.856,773.657 513.654,777.838 506,777.838Z"/>
    </g>
    <g transform="matrix(1,0,0,1,243,119)">
        <path d="M335.993,419.459C335.87,416.129 334.09,413.942 333.737,413.508C332.609,412.124 331.318,411.352 331.076,411.208C330.569,410.905 330.05,410.597 329.481,410.435C328.345,410.113 327.137,410.091 326,409.769L474.402,408.648C471.265,404.898 466.692,399.38 459.679,390.94L369.599,303.359C370.897,304.122 371.98,305.216 373.279,305.978C373.932,306.362 374.679,306.571 375.41,306.773C381.308,308.401 385.63,305.423 386.362,304.918C386.668,304.707 386.958,304.49 387.232,304.267C384.479,300.989 381.643,297.613 378.721,294.135C382.179,297.094 385.54,299.968 388.805,302.758C391.634,299.55 391.975,295.95 392.044,295.226C392.267,292.874 391.766,290.947 391.672,290.587C391.475,289.831 391.273,289.058 390.887,288.379C390.115,287.021 388.998,285.88 388.227,284.522L490.523,383.936C490.041,336.624 489.559,289.312 489.077,242L522.923,242L521.458,385.646L633.279,294.135C570.425,369.166 547.908,396.684 538.262,408.235C588.125,408.746 637.99,408.917 687.852,409.496C688.471,409.504 689.06,409.782 689.639,410.002C689.914,410.107 691.298,410.633 692.805,411.89C693.124,412.157 693.384,412.487 693.674,412.785C694.106,413.229 696.524,415.713 696.473,420C696.464,420.704 696.415,424.865 692.661,427.938C692.438,428.12 691.25,429.093 689.529,429.696C688.964,429.894 688.387,430.141 687.788,430.139C646.012,430.026 604.238,429.648 562.463,429.412C546.204,430.686 536.684,431.416 530.757,431.725C566.848,467.833 603.018,503.862 639.101,539.978C639.494,540.372 641.805,542.684 641.441,546.533C641.39,547.081 641.084,550.32 637.962,552.474C637.513,552.783 634.865,554.61 631.25,553.613C630.931,553.525 629.244,553.06 627.685,551.522C597.899,522.117 581.119,503.228 568.773,489.11C530.389,455.46 518.035,444.854 513.273,440.046L512.917,598C512.916,598.467 512.909,601.217 510.431,603.28C510.073,603.578 507.963,605.334 504.807,604.764C504.351,604.682 501.659,604.196 500.073,601.422C499.932,601.176 499.171,599.846 499.171,598L499.134,454.599C498.776,446.668 498.636,442.182 498.682,439.371C495.758,442.357 489.466,447.955 473.712,461.849C443.808,491.634 413.905,521.42 384,551.204C384.449,550.457 385.089,549.837 385.537,549.09C386.093,548.165 386.24,546.776 386.262,546.567C386.576,543.589 385.118,541.565 384.442,540.785C382.566,542.451 380.659,544.144 378.721,545.865C380.486,543.962 382.222,542.091 383.929,540.249C381.486,537.917 378.593,538.119 378.09,538.154C377.875,538.169 376.444,538.269 375.477,538.806C374.689,539.243 374.023,539.881 373.235,540.318L482.564,431.087C472.638,430.386 462.712,429.684 452.785,428.981L326,429.79C327.101,429.51 328.263,429.522 329.364,429.242C329.918,429.101 330.429,428.816 330.929,428.537C331.513,428.209 334.95,426.283 335.817,421.731C335.884,421.38 335.931,421.037 335.96,420.704C332.64,420.469 329.32,420.234 326,420C329.405,419.816 332.736,419.636 335.993,419.459ZM505.59,425.91C506.375,425.41 507.202,424.985 508.06,424.638C508.119,424.317 508.188,423.998 508.265,423.682C507.403,423.474 506.553,423.217 505.718,422.912C504.9,423.195 504.064,423.433 503.215,423.622C503.323,424.044 503.415,424.472 503.49,424.903C504.216,425.184 504.919,425.521 505.59,425.91Z"/>
    </g>
    <g transform="matrix(1,0,0,1,243,119)">
        <path d="M506,777.838C498.346,777.838 494.144,773.657 493.375,772.891C492.835,772.355 489.752,769.287 489.128,764.382C488.857,762.258 488.966,762.253 489.162,760.118C491.858,730.811 491.857,730.814 494.161,701.475C494.493,697.246 496.317,674.011 497.656,648.563C498.837,626.09 499.073,613.553 499.13,610.507C499.216,605.912 499.564,587.418 498.132,553.071C497.967,549.116 497.094,528.173 495.431,503.661C492.625,462.298 492.507,462.311 489.159,420.984C489.109,420.378 488.745,415.881 489.978,413.429C490.938,411.519 491.957,409.56 493.469,408.048C495.028,406.489 496.945,405.226 498.995,404.412C500.036,403.999 506,401.631 513.005,404.412C515.055,405.226 516.972,406.489 518.531,408.048C519.073,408.59 522.154,411.67 522.831,416.601C523.131,418.783 523.019,418.789 522.841,420.984C519.493,462.309 519.375,462.297 516.569,503.661C514.906,528.173 514.033,549.116 513.868,553.071C512.436,587.418 512.784,605.912 512.87,610.507C512.927,613.553 513.163,626.09 514.344,648.563C515.683,674.011 517.507,697.246 517.839,701.475C520.772,738.822 522.462,756.243 522.923,761C523.597,767.945 519.343,772.178 518.625,772.891C517.856,773.657 513.654,777.838 506,777.838Z"/>
    </g>
    <g transform="matrix(1,0,0,1,-175,-114)">
        <path d="M335.993,419.459C335.87,416.129 334.09,413.942 333.737,413.508C332.609,412.124 331.318,411.352 331.076,411.208C330.569,410.905 330.05,410.597 329.481,410.435C328.345,410.113 327.137,410.091 326,409.769L474.402,408.648C471.265,404.898 466.692,399.38 459.679,390.94L369.599,303.359C370.897,304.122 371.98,305.216 373.279,305.978C373.932,306.362 374.679,306.571 375.41,306.773C381.308,308.401 385.63,305.423 386.362,304.918C386.668,304.707 386.958,304.49 387.232,304.267C384.479,300.989 381.643,297.613 378.721,294.135C382.179,297.094 385.54,299.968 388.805,302.758C391.634,299.55 391.975,295.95 392.044,295.226C392.267,292.874 391.766,290.947 391.672,290.587C391.475,289.831 391.273,289.058 390.887,288.379C390.115,287.021 388.998,285.88 388.227,284.522L490.523,383.936C490.041,336.624 489.559,289.312 489.077,242L522.923,242L521.478,383.675C555.541,350.588 589.513,317.408 623.601,284.348C624.266,283.703 628.188,279.9 634.543,280.562C635.342,280.645 639.571,281.086 642.985,284.706C644.628,286.371 645.406,288.016 645.618,288.465C648.335,294.21 646.059,299.161 645.673,299.999C645.514,300.346 644.682,302.154 642.957,303.922C638.619,308.368 634.186,312.72 629.807,317.124C623.393,323.574 563.33,383.976 539.195,408.244C588.747,408.749 638.301,408.921 687.852,409.496C688.471,409.504 689.06,409.782 689.639,410.002C689.914,410.107 691.298,410.633 692.805,411.89C693.124,412.157 693.384,412.487 693.674,412.785C694.106,413.229 696.524,415.713 696.473,420C696.464,420.704 696.415,424.865 692.661,427.938C692.438,428.12 691.25,429.093 689.529,429.696C688.964,429.894 688.387,430.141 687.788,430.139C645.809,430.025 603.83,429.644 561.852,429.409C543.979,430.819 535.588,431.505 530.822,431.79C566.891,467.877 603.04,503.884 639.101,539.978C639.494,540.372 641.805,542.684 641.441,546.533C641.39,547.081 641.084,550.32 637.962,552.474C637.513,552.783 634.865,554.61 631.25,553.613C630.931,553.525 629.244,553.06 627.685,551.522C597.899,522.117 581.119,503.228 568.773,489.11C530.389,455.46 518.035,444.854 513.273,440.046L512.917,598C512.916,598.467 512.909,601.217 510.431,603.28C510.073,603.578 507.963,605.334 504.807,604.764C504.351,604.682 501.659,604.196 500.073,601.422C499.932,601.176 499.171,599.846 499.171,598L499.134,454.599C498.776,446.668 498.636,442.182 498.682,439.371C495.758,442.357 489.466,447.955 473.712,461.849C443.808,491.634 413.905,521.42 384,551.204C384.449,550.457 385.089,549.837 385.537,549.09C386.093,548.165 386.24,546.776 386.262,546.567C386.576,543.589 385.118,541.565 384.442,540.785C382.566,542.451 380.659,544.144 378.721,545.865C380.486,543.962 382.222,542.091 383.929,540.249C381.486,537.917 378.593,538.119 378.09,538.154C377.875,538.169 376.444,538.269 375.477,538.806C374.689,539.243 374.023,539.881 373.235,540.318L482.564,431.087C472.638,430.386 462.712,429.684 452.785,428.981L326,429.79C327.101,429.51 328.263,429.522 329.364,429.242C329.918,429.101 330.429,428.816 330.929,428.537C331.513,428.209 334.95,426.283 335.817,421.731C335.884,421.38 335.931,421.037 335.96,420.704C332.64,420.469 329.32,420.234 326,420C329.405,419.816 332.736,419.636 335.993,419.459ZM505.59,425.91C506.375,425.41 507.202,424.985 508.06,424.638C508.119,424.317 508.188,423.998 508.265,423.682C507.403,423.474 506.553,423.217 505.718,422.912C504.9,423.195 504.064,423.433 503.215,423.622C503.323,424.044 503.415,424.472 503.49,424.903C504.216,425.184 504.919,425.521 505.59,425.91Z"/>
    </g>
    <g transform="matrix(1,0,0,1,-175,-114)">
        <path d="M506,777.838C498.346,777.838 494.144,773.657 493.375,772.891C492.835,772.355 489.752,769.287 489.128,764.382C488.857,762.258 488.966,762.253 489.162,760.118C491.858,730.811 491.857,730.814 494.161,701.475C494.493,697.246 496.317,674.011 497.656,648.563C498.837,626.09 499.073,613.553 499.13,610.507C499.216,605.912 499.564,587.418 498.132,553.071C497.967,549.116 497.094,528.173 495.431,503.661C492.625,462.298 492.507,462.311 489.159,420.984C489.109,420.378 488.745,415.881 489.978,413.429C490.938,411.519 491.957,409.56 493.469,408.048C495.028,406.489 496.945,405.226 498.995,404.412C506,401.631 511.964,403.999 513.005,404.412C515.055,405.226 516.972,406.489 518.531,408.048C519.073,408.59 522.154,411.67 522.831,416.601C523.131,418.783 523.019,418.789 522.841,420.984C519.493,462.309 519.375,462.297 516.569,503.661C514.906,528.173 514.033,549.116 513.868,553.071C512.436,587.418 512.784,605.912 512.87,610.507C512.927,613.553 513.163,626.09 514.344,648.563C515.683,674.011 517.507,697.246 517.839,701.475C520.772,738.822 522.462,756.243 522.923,761C523.597,767.945 519.343,772.178 518.625,772.891C517.856,773.657 513.654,777.838 506,777.838Z"/>
    </g>
    <g transform="matrix(1,0,0,1,-88,191)">
        <path d="M335.993,419.459C335.87,416.129 334.09,413.942 333.737,413.508C332.609,412.124 331.318,411.352 331.076,411.208C330.569,410.905 330.05,410.597 329.481,410.435C328.345,410.113 327.137,410.091 326,409.769L473.271,408.656C460.557,395.907 432.97,367.886 369.215,303.748C370.165,304.274 371.012,304.968 371.899,305.596L369.599,303.359C370.897,304.122 371.98,305.216 373.279,305.978C373.932,306.362 374.679,306.571 375.41,306.773C381.308,308.401 385.63,305.423 386.362,304.918C386.964,304.503 387.502,304.063 387.983,303.608C389.496,302.087 391.519,299.332 391.802,295.206C391.827,294.843 391.96,292.902 391.321,290.683C391.111,289.955 390.894,289.21 390.503,288.561C389.726,287.271 388.62,286.2 387.843,284.91C388.602,285.674 389.356,286.432 390.105,287.185C389.467,286.305 388.763,285.466 388.227,284.522L490.523,383.936C490.041,336.624 489.559,289.312 489.077,242L522.923,242L521.458,385.646L633.279,294.135C570.425,369.166 547.908,396.684 538.262,408.235C588.125,408.746 637.99,408.917 687.852,409.496C688.471,409.504 689.06,409.782 689.639,410.002C689.914,410.107 691.298,410.633 692.805,411.89C693.124,412.157 693.384,412.487 693.674,412.785C694.106,413.229 696.524,415.713 696.473,420C696.464,420.704 696.415,424.865 692.661,427.938C692.438,428.12 691.25,429.093 689.529,429.696C688.964,429.894 688.387,430.141 687.788,430.139C646.012,430.026 604.238,429.648 562.463,429.412C545.764,430.721 536.174,431.455 530.284,431.75L633.279,545.865C542.269,465.529 520.06,446.898 513.273,440.046L512.917,598C512.916,598.467 512.909,601.217 510.431,603.28C508.504,604.884 506.377,604.875 506,604.873C503.501,604.863 501.881,603.493 501.594,603.25C501.241,602.952 499.172,601.201 499.171,598L499.134,454.599C498.776,446.668 498.636,442.182 498.682,439.371C492.531,445.655 471.461,463.501 378.721,545.865L482.729,431.329C478.46,431.082 470.221,430.447 450.665,428.995L326,429.79C327.101,429.51 328.263,429.522 329.364,429.242C329.918,429.101 330.429,428.816 330.929,428.537C331.513,428.209 334.95,426.283 335.817,421.731C335.884,421.38 335.931,421.037 335.96,420.704C332.713,420.474 329.393,420.24 326,420C329.405,419.816 332.736,419.636 335.993,419.459ZM505.59,425.91C506.375,425.41 507.202,424.985 508.06,424.638C508.119,424.317 508.188,423.998 508.265,423.682C507.403,423.474 506.553,423.217 505.718,422.912C504.9,423.195 504.064,423.433 503.215,423.622C503.323,424.044 503.415,424.472 503.49,424.903C504.216,425.184 504.919,425.521 505.59,425.91Z"/>
    </g>
    <g transform="matrix(1,0,0,1,-88,191)">
        <path d="M506,777.838C498.346,777.838 494.144,773.657 493.375,772.891C492.835,772.355 489.752,769.287 489.128,764.382C488.857,762.258 488.966,762.253 489.162,760.118C491.858,730.811 491.857,730.814 494.161,701.475C494.493,697.246 496.317,674.011 497.656,648.563C498.837,626.09 499.073,613.553 499.13,610.507C499.216,605.912 499.564,587.418 498.132,553.071C497.967,549.116 497.094,528.173 495.431,503.661C492.625,462.298 492.507,462.311 489.159,420.984C489.109,420.378 488.745,415.881 489.978,413.429C490.938,411.519 491.957,409.56 493.469,408.048C495.028,406.489 496.945,405.226 498.995,404.412C500.036,403.999 506,401.631 513.005,404.412C515.055,405.226 516.972,406.489 518.531,408.048C519.073,408.59 522.154,411.67 522.831,416.601C523.131,418.783 523.019,418.789 522.841,420.984C519.493,462.309 519.375,462.297 516.569,503.661C514.906,528.173 514.033,549.116 513.868,553.071C512.436,587.418 512.784,605.912 512.87,610.507C512.927,613.553 513.163,626.09 514.344,648.563C515.683,674.011 517.507,697.246 517.839,701.475C520.772,738.822 522.462,756.243 522.923,761C523.597,767.945 519.343,772.178 518.625,772.891C517.856,773.657 513.654,777.838 506,777.838Z"/>
    </g>
</svg>
