<?xml version="1.0" encoding="UTF-8" standalone="no"?>
<!DOCTYPE svg PUBLIC "-//W3C//DTD SVG 1.1//EN" "http://www.w3.org/Graphics/SVG/1.1/DTD/svg11.dtd">
<svg width="100%" height="100%" viewBox="0 0 1080 1080" version="1.1" xmlns="http://www.w3.org/2000/svg" xmlns:xlink="http://www.w3.org/1999/xlink" xml:space="preserve" xmlns:serif="http://www.serif.com/" style="fill-rule:evenodd;clip-rule:evenodd;stroke-linejoin:round;stroke-miterlimit:2;">
    <g id="Misty" transform="matrix(1,0,0,1,2.5,-35)">
        <path d="M912.943,585.769C908.307,591.341 902.375,591.9 901.325,591.999C899.19,592.2 896.965,591.986 894.927,591.318C892.829,590.629 891.037,589.216 889.183,588.015C889.031,587.917 874.246,574.485 857.002,559.54C839.619,544.475 823.567,531.755 820.604,529.407C788.067,503.624 760.735,485.293 735.105,471.413C726.36,466.677 683.645,443.311 645.626,443.144C617.98,443.022 590.094,459.265 572.332,470.748C568.31,473.348 556.87,481.16 546.781,488.861C528.312,502.958 502.798,523.902 487.517,535.65C442.713,570.092 414.337,582.626 386.319,582.185C365.789,581.863 329.988,575.781 275.797,539.689C227.247,507.355 180.899,462.031 157.853,439.783C157.113,439.068 152.828,434.932 152.935,427.902C152.968,425.722 153.432,423.504 154.307,421.506C154.74,420.518 157.229,414.834 163.987,412.116C166.01,411.302 168.242,410.906 170.422,410.939C172.576,410.972 174.773,411.427 176.737,412.31C178.763,413.221 180.416,414.81 182.14,416.21C182.877,416.807 217.426,456.137 249.527,485.731C291.217,524.166 319.994,540.956 337.885,549.624C353.035,556.963 365.471,560.045 367.958,560.661C387.246,565.441 398.659,563.45 399.861,563.293C426.096,559.855 454.263,541.436 475.665,526.071C488.104,517.141 499.236,508.477 501.255,506.906C508.754,501.07 532.06,482.658 550.091,469.538C593.805,437.73 622.14,426.713 649.171,426.829C668.741,426.912 699.393,431.035 746.87,453.704C797.214,477.743 847.091,514.065 865.347,527.515C886.262,542.924 907.903,559.745 910.824,561.991C911.635,562.615 916.334,566.229 916.956,573.213C917.05,574.264 917.579,580.198 912.943,585.769Z"/>
        <g transform="matrix(1,0,0,1,5,147)">
            <path d="M912.943,585.769C908.307,591.341 902.375,591.9 901.325,591.999C899.19,592.2 896.965,591.986 894.927,591.318C892.829,590.629 891.037,589.216 889.183,588.015C889.031,587.917 874.246,574.485 857.002,559.54C839.619,544.475 823.567,531.755 820.604,529.407C788.067,503.624 760.735,485.293 735.105,471.413C726.36,466.677 683.645,443.311 645.626,443.144C617.98,443.022 590.094,459.265 572.332,470.748C568.31,473.348 556.87,481.16 546.781,488.861C528.312,502.958 502.798,523.902 487.517,535.65C442.713,570.092 414.337,582.626 386.319,582.185C365.789,581.863 329.988,575.781 275.797,539.689C227.247,507.355 180.899,462.031 157.853,439.783C157.113,439.068 152.828,434.932 152.935,427.902C152.968,425.722 153.432,423.504 154.307,421.506C154.74,420.518 157.229,414.834 163.987,412.116C166.01,411.302 168.242,410.906 170.422,410.939C172.576,410.972 174.773,411.427 176.737,412.31C178.763,413.221 180.416,414.81 182.14,416.21C182.877,416.807 217.426,456.137 249.527,485.731C291.217,524.166 319.994,540.956 337.885,549.624C353.035,556.963 365.471,560.045 367.958,560.661C387.246,565.441 398.659,563.45 399.861,563.293C426.096,559.855 454.263,541.436 475.665,526.071C488.104,517.141 499.236,508.477 501.255,506.906C508.754,501.07 532.06,482.658 550.091,469.538C593.805,437.73 622.14,426.713 649.171,426.829C668.741,426.912 699.393,431.035 746.87,453.704C797.214,477.743 847.091,514.065 865.347,527.515C886.262,542.924 907.903,559.745 910.824,561.991C911.635,562.615 916.334,566.229 916.956,573.213C917.05,574.264 917.579,580.198 912.943,585.769Z"/>
        </g>
    </g>
</svg>
