<?xml version="1.0" encoding="UTF-8" standalone="no"?>
<!DOCTYPE svg PUBLIC "-//W3C//DTD SVG 1.1//EN" "http://www.w3.org/Graphics/SVG/1.1/DTD/svg11.dtd">
<svg width="100%" height="100%" viewBox="0 0 1080 1080" version="1.1" xmlns="http://www.w3.org/2000/svg" xmlns:xlink="http://www.w3.org/1999/xlink" xml:space="preserve" xmlns:serif="http://www.serif.com/" style="fill-rule:evenodd;clip-rule:evenodd;stroke-linejoin:round;stroke-miterlimit:2;">
    <g id="Mountains">
        <g transform="matrix(1,0,0,1,3.5,32.25)">
            <path d="M401.256,241.829C393.258,258.084 387.372,275.324 379.374,291.579C370.496,309.624 360.166,326.919 350.667,344.645C345.709,353.898 324.387,393.688 289.445,460.712C282.342,474.337 255.859,525.134 201.485,631.457L155.845,721.126C155.379,722.043 152.681,727.352 145.934,729.326C143.842,729.938 141.587,730.151 139.421,729.906C138.35,729.785 132.194,729.088 127.61,723.441C126.237,721.749 125.201,719.734 124.589,717.642C123.984,715.574 123.769,713.341 124.03,711.202C124.3,708.997 125.32,706.944 126.15,704.883C126.482,704.058 127.052,703.35 127.502,702.584C144.033,674.424 160.615,646.295 177.091,618.104C237.35,515.003 265.868,465.319 273.517,451.993C311.143,386.439 333.17,347.035 338.292,337.871C362.972,293.721 378.481,264.933 381.916,258.557C386.215,250.576 390.442,242.556 394.738,234.572C395.004,234.077 396.664,230.992 400.503,230.55C403.851,230.165 406.034,232.092 406.405,232.42C406.731,232.707 407.042,233.016 407.307,233.361C413.821,241.848 420.225,250.418 426.736,258.907C475.267,322.178 508.94,365.335 516.134,374.554C579.609,455.906 609.47,493.654 617.633,503.973C618.268,504.776 621.944,509.424 620.87,516.353C620.537,518.506 619.77,520.636 618.63,522.492C618.064,523.413 614.813,528.702 607.748,530.495C605.637,531.031 603.375,531.128 601.221,530.805C599.099,530.488 596.99,529.747 595.169,528.611C593.295,527.441 591.883,525.648 590.373,524.035C589.815,523.439 589.454,522.686 588.992,522.013C580.459,509.563 571.952,497.094 563.388,484.665C541.307,452.618 519.217,420.577 497.059,388.584C483.416,368.886 469.084,349.654 455.985,329.59C437.139,300.721 420.102,270.698 401.256,241.829Z"/>
        </g>
        <g transform="matrix(1,0,0,1,331.5,96.75)">
            <path d="M401.256,241.829C393.258,258.084 387.372,275.324 379.374,291.579C370.496,309.624 360.166,326.919 350.667,344.645C345.709,353.898 324.387,393.688 289.445,460.712C282.342,474.337 255.859,525.134 201.485,631.457L155.845,721.126C155.379,722.043 152.681,727.352 145.934,729.326C143.842,729.938 141.587,730.151 139.421,729.906C132.194,729.088 128.289,724.277 127.61,723.441C126.237,721.749 125.201,719.734 124.589,717.642C123.984,715.574 123.769,713.341 124.03,711.202C124.3,708.997 125.32,706.944 126.15,704.883C126.482,704.058 127.052,703.35 127.502,702.584C144.033,674.424 160.615,646.295 177.091,618.104C237.35,515.003 265.868,465.319 273.517,451.993C311.143,386.439 333.17,347.035 338.292,337.871C362.972,293.721 378.481,264.933 381.916,258.557C386.215,250.576 390.442,242.556 394.738,234.572C395.004,234.077 396.664,230.992 400.503,230.55C403.851,230.165 406.034,232.092 406.405,232.42C406.731,232.707 407.042,233.016 407.307,233.361C413.821,241.848 420.225,250.418 426.736,258.907C475.267,322.178 508.94,365.335 516.134,374.554C579.609,455.906 609.47,493.654 617.633,503.973C618.268,504.776 621.944,509.424 620.87,516.353C620.537,518.506 619.77,520.636 618.63,522.492C618.064,523.413 614.813,528.702 607.748,530.495C605.637,531.031 603.375,531.128 601.221,530.805C599.099,530.488 596.99,529.747 595.169,528.611C593.295,527.441 591.883,525.648 590.373,524.035C589.815,523.439 589.454,522.686 588.992,522.013C580.459,509.563 571.952,497.094 563.388,484.665C541.307,452.618 519.217,420.577 497.059,388.584C483.416,368.886 469.084,349.654 455.985,329.59C437.139,300.721 420.102,270.698 401.256,241.829Z"/>
        </g>
    </g>
</svg>
