<?xml version="1.0" encoding="UTF-8" standalone="no"?>
<!DOCTYPE svg PUBLIC "-//W3C//DTD SVG 1.1//EN" "http://www.w3.org/Graphics/SVG/1.1/DTD/svg11.dtd">
<svg width="100%" height="100%" viewBox="0 0 1080 1080" version="1.1" xmlns="http://www.w3.org/2000/svg" xmlns:xlink="http://www.w3.org/1999/xlink" xml:space="preserve" xmlns:serif="http://www.serif.com/" style="fill-rule:evenodd;clip-rule:evenodd;stroke-linejoin:round;stroke-miterlimit:2;">
    <g transform="matrix(1,0,0,1,45.975,211.697)">
        <g id="Ore">
            <path d="M242.313,534.799C268.425,534.799 293.577,536.911 317.769,541.135C341.961,544.975 366.537,546.895 391.497,546.895C397.641,546.895 402.249,544.975 405.321,541.135C408.393,536.911 410.505,531.919 411.657,526.159C412.809,520.015 413.193,513.871 412.809,507.727L412.809,491.023C408.585,491.023 403.785,490.831 398.409,490.447C393.033,490.063 387.657,489.103 382.281,487.567C377.289,486.031 372.489,483.727 367.881,480.655C363.657,477.583 360.585,473.359 358.665,467.983C373.641,450.319 385.737,433.423 394.953,417.295C404.169,401.167 411.849,384.655 417.993,367.759C424.137,350.863 429.321,332.815 433.545,313.615C437.769,294.415 441.993,273.103 446.217,249.679L485.385,215.119L485.385,293.455C486.921,293.455 489.225,297.679 492.297,306.127C495.369,314.575 498.633,324.367 502.089,335.503C505.545,346.255 508.617,357.007 511.305,367.759C513.993,378.511 515.529,385.807 515.913,389.647C516.297,392.719 516.489,397.903 516.489,405.199L516.489,452.431C516.489,459.727 516.297,464.911 515.913,467.983C520.521,471.439 524.361,477.007 527.433,484.687C530.889,491.983 533.769,499.471 536.073,507.151C538.761,514.831 541.065,521.743 542.985,527.887C545.289,533.647 547.785,536.911 550.473,537.679C553.161,529.231 557.385,522.703 563.145,518.095C569.289,513.487 575.433,509.455 581.577,505.999C587.721,502.543 593.097,498.895 597.705,495.055C602.313,490.831 604.617,485.071 604.617,477.775C604.617,468.559 602.697,460.111 598.857,452.431C595.017,444.367 590.793,436.495 586.185,428.815C581.961,421.135 577.929,413.455 574.089,405.775C570.249,397.711 568.329,389.263 568.329,380.431C568.329,373.519 568.905,364.111 570.057,352.207C571.593,340.303 573.705,327.631 576.393,314.191C579.081,300.367 582.537,286.543 586.761,272.719C591.369,258.511 596.553,245.839 602.313,234.703C608.457,223.183 615.369,213.967 623.049,207.055C631.113,199.759 640.137,196.111 650.121,196.111C660.489,196.111 670.089,201.871 678.921,213.391C688.137,224.911 696.201,238.543 703.113,254.287C710.025,269.647 715.401,285.199 719.241,300.943C723.465,316.687 725.577,328.783 725.577,337.231C725.577,341.839 724.617,348.943 722.697,358.543C720.777,368.143 718.281,378.319 715.209,389.071C712.521,399.439 709.641,409.615 706.569,419.599C703.881,429.199 701.385,436.495 699.081,441.487C696.009,448.015 691.977,452.815 686.985,455.887C682.377,458.575 677.577,461.263 672.585,463.951C667.593,466.255 663.369,469.327 659.913,473.167C656.457,476.623 654.729,482.191 654.729,489.871C654.729,494.479 655.113,499.663 655.881,505.423C656.649,510.799 657.993,516.175 659.913,521.551C661.833,526.543 664.521,530.767 667.977,534.223C671.433,537.679 675.849,539.407 681.225,539.407C681.993,539.407 683.529,539.215 685.833,538.831C688.137,538.447 689.673,538.063 690.441,537.679C700.425,528.463 710.601,519.055 720.969,509.455C731.337,499.471 740.745,488.911 749.193,477.775C757.641,466.255 764.553,453.967 769.929,440.911C775.305,427.855 777.993,413.647 777.993,398.287C777.993,385.231 776.265,373.135 772.809,361.999C769.353,350.479 767.625,337.807 767.625,323.983L767.625,304.399C768.009,300.175 768.201,296.335 768.201,292.879C768.585,289.039 768.777,286.351 768.777,284.815C774.153,283.279 777.033,280.399 777.417,276.175C777.801,271.567 777.993,267.343 777.993,263.503C777.993,245.839 774.729,229.903 768.201,215.695C762.057,201.103 753.801,187.855 743.433,175.951C733.449,163.663 722.121,152.335 709.449,141.967C697.161,131.215 684.873,120.655 672.585,110.287L667.977,110.287C666.057,109.903 664.713,109.711 663.945,109.711C652.425,109.711 641.097,113.935 629.961,122.383C618.825,130.831 608.649,141.199 599.433,153.487C590.217,165.391 581.961,177.871 574.665,190.927C567.753,203.983 562.569,214.927 559.113,223.759L533.193,127.567L515.913,118.927L428.361,179.983C428.361,179.983 427.401,179.407 425.481,178.255C423.561,177.103 421.065,175.567 417.993,173.647C415.305,171.727 412.425,169.807 409.353,167.887C406.665,165.967 404.361,164.239 402.441,162.703C399.753,160.783 397.065,158.479 394.377,155.791C392.073,153.103 391.881,149.647 393.801,145.423C392.649,145.039 390.345,144.463 386.889,143.695C383.433,142.927 379.785,142.159 375.945,141.391C372.489,140.623 369.033,139.855 365.577,139.087C362.121,137.935 359.817,137.167 358.665,136.783C355.593,135.631 352.521,133.711 349.449,131.023C346.761,127.951 344.073,124.879 341.385,121.807C338.697,118.735 336.201,116.047 333.897,113.743C331.593,111.055 329.865,109.711 328.713,109.711C327.945,109.711 326.985,109.903 325.833,110.287L324.105,110.287C323.337,111.055 321.801,112.591 319.497,114.895C317.193,116.815 315.849,118.159 315.465,118.927L236.553,118.927C231.945,118.927 227.913,121.231 224.457,125.839C221.385,130.063 218.697,135.055 216.393,140.815C214.089,146.575 212.361,152.527 211.209,158.671C210.441,164.431 210.057,168.847 210.057,171.919C210.057,179.599 211.977,184.591 215.817,186.895C220.041,188.815 225.417,189.775 231.945,189.775C238.473,189.775 244.041,188.815 248.649,186.895C253.641,184.975 258.249,182.863 262.473,180.559C267.081,177.871 271.689,175.567 276.297,173.647C281.289,171.727 287.049,170.767 293.577,170.767C305.097,170.767 316.041,175.567 326.409,185.167C336.777,194.383 345.609,205.711 352.905,219.151C360.585,232.591 366.537,246.607 370.761,261.199C375.369,275.407 377.673,287.695 377.673,298.063C377.673,301.519 376.329,308.047 373.641,317.647C370.953,327.247 367.497,338.383 363.273,351.055C359.049,363.727 354.249,376.975 348.873,390.799C343.497,404.623 338.121,417.679 332.745,429.967C327.753,441.871 322.953,452.239 318.345,461.071C313.737,469.519 309.897,474.703 306.825,476.623C294.921,484.303 284.745,488.911 276.297,490.447C268.233,491.599 261.705,493.135 256.713,495.055C251.721,496.591 248.073,500.047 245.769,505.423C243.465,510.415 242.313,520.207 242.313,534.799ZM350.025,398.287C352.329,398.287 353.865,399.247 354.633,401.167C355.785,402.703 356.361,404.623 356.361,406.927C356.361,409.231 355.785,411.343 354.633,413.263C353.865,414.799 352.329,415.567 350.025,415.567C347.721,415.567 345.993,414.799 344.841,413.263C344.073,411.343 343.689,409.231 343.689,406.927C343.689,404.623 344.073,402.703 344.841,401.167C345.993,399.247 347.721,398.287 350.025,398.287Z" style="fill-rule:nonzero;"/>
        </g>
    </g>
</svg>
