<?xml version="1.0" encoding="UTF-8" standalone="no"?>
<!DOCTYPE svg PUBLIC "-//W3C//DTD SVG 1.1//EN" "http://www.w3.org/Graphics/SVG/1.1/DTD/svg11.dtd">
<svg width="100%" height="100%" viewBox="0 0 1080 1080" version="1.1" xmlns="http://www.w3.org/2000/svg" xmlns:xlink="http://www.w3.org/1999/xlink" xml:space="preserve" xmlns:serif="http://www.serif.com/" style="fill-rule:evenodd;clip-rule:evenodd;stroke-linejoin:round;stroke-miterlimit:2;">
    <g id="Plains">
        <g transform="matrix(1,0,0,1,16.5,68)">
            <path d="M409.402,634.779C401.871,634.062 398.08,629.492 397.392,628.662C396.904,628.074 394.128,624.727 393.921,619.775C393.817,617.266 394.006,617.277 394.438,614.804C395.684,607.669 400.209,582.203 399.78,549.838C399.742,546.937 399.325,531.353 397.18,516.409C394.161,495.387 389.919,481.985 389.391,480.215C384.646,464.302 380.29,454.776 378.924,451.712C378.656,451.11 376.474,446.037 371.671,437.126C369.865,433.776 366.327,428.116 365.845,427.343C359.492,417.179 355.135,411.524 351.379,406.774C344.518,398.097 337.816,390.511 328.137,381.141C324.381,377.505 315.066,368.52 298.818,356.375C292.536,351.68 284.319,346.323 283.034,345.485C261.217,331.263 243.238,322.667 234.264,318.468C223.689,313.519 215.441,310.147 215.353,310.097C214.363,309.55 213.31,309.105 212.385,308.454C208.312,305.585 206.954,301.447 206.714,300.718C206.029,298.628 205.761,296.354 205.955,294.163C206.614,286.714 211.387,282.51 212.22,281.776C213.87,280.324 215.859,279.193 217.948,278.507C218.677,278.268 222.815,276.91 227.544,278.483C229.621,279.174 229.581,279.269 231.46,280.389C231.527,280.429 255.025,294.001 280.718,313.514C284.005,316.01 299.794,327.849 318.975,346.394C323.346,350.621 336.579,363.678 349.264,379.502C360.681,393.742 366.334,402.399 371.654,410.593C374.009,414.221 377.964,420.304 385.666,434.514C386.381,435.832 391.138,444.714 395.052,453.127C397.992,459.446 403.311,470.498 410.025,490.663C411.012,493.628 415.928,508.395 420.063,528.424C420.829,532.134 424.308,549.302 426.22,570.157C428.352,593.414 427.923,614.185 427.847,619.604C427.843,619.875 427.823,621.304 427.427,622.965C426.278,627.788 422.92,630.551 422.33,631.036C421.498,631.72 416.912,635.494 409.402,634.779Z"/>
        </g>
        <g transform="matrix(1,0,0,1,16.5,68)">
            <path d="M616.411,190.024C622.542,194.153 623.695,199.99 623.901,201.035C624.316,203.134 624.32,205.368 623.84,207.452C622.923,211.43 622.623,211.35 620.16,214.603C610.477,227.39 590.532,254.251 567.549,294.172C561.845,304.08 555.413,316.451 554.396,318.408C552.416,322.216 542.242,341.48 529.675,371.319C529.668,371.336 525.133,382.23 519.667,396.984C513.269,414.256 508.889,427.712 503.597,446.569C502.481,450.546 498.763,464.84 494.926,481.969C494.669,483.116 489.674,506.24 486.032,529.995C482.347,554.028 480.094,573.116 477.874,596.868C476.049,616.408 473.482,654.011 472.235,690.946C471.377,716.361 470.887,741.182 470.88,741.206C470.231,743.353 469.966,745.656 468.932,747.646C467.928,749.575 466.516,751.328 464.874,752.753C463.249,754.162 461.335,755.306 459.3,756.002C459.283,756.008 452.802,756.882 452.794,756.88C450.62,756.281 448.291,756.085 446.273,755.079C444.33,754.111 442.562,752.71 441.139,751.07C439.724,749.439 438.59,747.5 437.917,745.448C436.603,741.445 436.812,741.358 437.317,737.178C437.596,734.866 440.681,708.487 446.499,665.497C448.618,649.835 451.749,627.273 458.098,589.998C460.423,576.349 465.203,549.994 470.122,527.068C475.582,501.625 477.301,494.691 482.243,474.572C484.635,464.831 485.607,461.072 491.684,438.768C493.066,433.694 500.532,406.735 507.257,385.682C510.166,376.578 516.22,358.504 521.594,343.932C522.501,341.473 530.253,320.483 539.698,298.607C552.628,268.66 564.215,246.359 566.528,241.906C578.257,219.332 590.055,199.451 592.208,195.822C594.301,192.295 594.118,192.05 597.474,189.698C599.226,188.47 601.298,187.634 603.399,187.229C604.444,187.027 610.287,185.9 616.411,190.024Z"/>
        </g>
        <g transform="matrix(1,0,0,1,16.5,68)">
            <path d="M840.922,416.817C840.933,417.845 840.995,423.699 836.079,428.722C834.562,430.273 832.726,431.571 830.738,432.441C826.277,434.392 826.128,434.027 821.268,433.743C815.997,433.434 785.756,431.478 749.387,433.105C744.974,433.302 727.239,434.396 712.857,436.351C688.195,439.703 674.294,443.712 671.557,444.46C654.383,449.152 644.769,453.4 640.527,455.277C628.185,460.737 619.976,466.377 619.702,466.557C605.786,475.722 598.709,483.545 596.811,485.593C586.067,497.183 580.552,507.713 577.094,516.017C574.315,522.69 569.307,536.227 568.732,557.336C568.265,574.508 571.908,592.568 572.516,595.581C575.202,608.897 580.251,628.287 592.914,657.244C593.324,658.181 595.718,663.655 592.734,670.019C591.802,672.008 590.442,673.845 588.803,675.307C583.246,680.264 576.916,680.044 575.812,680.006C573.618,679.93 571.399,679.386 569.411,678.454C567.47,677.544 565.663,676.22 564.266,674.593C561.467,671.335 561.77,671.108 560.568,666.981C557.618,656.854 547.863,622.778 546.455,588.09C546.047,578.066 545.719,554.494 552.948,530.629C557.724,514.865 564.839,500.808 575.485,487.418C577.573,484.792 584.508,476.009 597.947,465.27C602.054,461.988 608.876,456.772 621.986,449.331C631.877,443.717 646.807,436.519 663.166,430.579C669.585,428.248 682.94,423.763 697.432,419.952C697.719,419.877 713.419,415.705 732.169,412.093C736.608,411.238 750.49,408.678 764.635,406.61C785.978,403.49 807.163,401.479 823.809,400.078C826.737,399.832 829.903,401.091 830.401,401.289C832.41,402.088 834.276,403.337 835.821,404.849C840.847,409.768 840.911,415.776 840.922,416.817Z"/>
        </g>
    </g>
</svg>
