<?xml version="1.0" encoding="UTF-8" standalone="no"?>
<!DOCTYPE svg PUBLIC "-//W3C//DTD SVG 1.1//EN" "http://www.w3.org/Graphics/SVG/1.1/DTD/svg11.dtd">
<svg width="100%" height="100%" viewBox="0 0 1080 1080" version="1.1" xmlns="http://www.w3.org/2000/svg" xmlns:xlink="http://www.w3.org/1999/xlink" xml:space="preserve" xmlns:serif="http://www.serif.com/" style="fill-rule:evenodd;clip-rule:evenodd;stroke-linejoin:round;stroke-miterlimit:2;">
    <g transform="matrix(1,0,0,1,157.95,94.5804)">
        <g id="Plant">
            <path d="M256.77,589.42C257.922,595.18 259.842,604.396 262.53,617.068C265.218,629.74 268.29,642.604 271.746,655.66C275.586,669.1 279.81,681.196 284.418,691.948C289.41,702.7 294.786,709.228 300.546,711.532C302.466,703.468 305.154,692.14 308.61,677.548C312.066,662.956 316.098,648.364 320.706,633.772C325.314,619.564 330.498,607.084 336.258,596.332C342.402,585.58 349.122,580.204 356.418,580.204C366.018,580.204 375.234,581.164 384.066,583.084C393.282,585.004 402.498,587.308 411.714,589.996C420.93,592.3 430.146,594.412 439.362,596.332C448.578,598.252 457.986,599.212 467.586,599.212C471.042,599.212 474.882,599.404 479.106,599.788C483.714,599.788 488.13,599.404 492.354,598.636C496.578,597.484 500.226,595.564 503.298,592.876C506.754,590.188 508.866,586.156 509.634,580.78C510.018,578.476 510.018,575.404 509.634,571.564C509.25,567.724 508.482,563.884 507.33,560.044C506.562,556.204 505.602,552.94 504.45,550.252C503.298,547.564 502.146,546.028 500.994,545.644L404.802,528.364C402.114,527.98 400.194,526.252 399.042,523.18C397.89,520.108 396.93,516.652 396.162,512.812C395.778,508.972 395.586,505.324 395.586,501.868L395.586,494.38C395.586,489.772 396.354,480.94 397.89,467.884C399.81,454.828 402.306,439.852 405.378,422.956C408.45,406.06 412.098,388.396 416.322,369.964C420.546,351.532 425.346,334.636 430.722,319.276C436.482,303.916 442.626,291.244 449.154,281.26C455.682,271.276 462.594,266.284 469.89,266.284C483.33,266.284 494.85,270.892 504.45,280.108C514.05,289.324 521.73,300.46 527.49,313.516C533.634,326.188 538.05,339.628 540.738,353.836C543.81,367.66 545.346,379.18 545.346,388.396C545.346,398.764 544.386,409.132 542.466,419.5C540.546,429.868 538.434,440.236 536.13,450.604C533.826,460.972 531.714,471.34 529.794,481.708C527.874,491.692 526.914,501.484 526.914,511.084C526.914,513.772 527.874,515.884 529.794,517.42C532.098,518.572 534.402,519.532 536.706,520.3C539.394,520.684 541.89,520.876 544.194,520.876L549.954,520.876C560.322,520.876 568.002,517.996 572.994,512.236C578.37,506.092 582.21,498.412 584.514,489.196C587.202,479.596 588.93,469.228 589.698,458.092C590.466,446.572 591.81,435.628 593.73,425.26C596.034,414.892 599.106,405.676 602.946,397.612C607.17,389.164 613.89,383.404 623.106,380.332C622.338,379.948 620.994,378.988 619.074,377.452C617.538,375.532 615.81,373.612 613.89,371.692C611.97,369.772 610.242,368.044 608.706,366.508C607.17,364.588 606.21,363.244 605.826,362.476C605.442,362.476 605.25,362.092 605.25,361.324L605.25,358.444C605.25,353.068 606.786,348.268 609.858,344.044C612.93,339.436 614.466,334.252 614.466,328.492C614.466,314.284 613.698,303.532 612.162,296.236C611.01,288.94 608.514,283.18 604.674,278.956C600.834,274.348 595.458,270.124 588.546,266.284C581.634,262.444 572.802,256.684 562.05,249.004C553.602,243.244 547.266,236.716 543.042,229.42C539.202,222.124 535.17,215.404 530.946,209.26C527.106,203.116 522.306,197.932 516.546,193.708C511.17,189.484 502.914,187.372 491.778,187.372C468.738,187.372 449.346,193.324 433.602,205.228C417.858,217.132 404.994,232.684 395.01,251.884C385.026,270.7 377.346,292.204 371.97,316.396C366.594,340.204 362.562,364.204 359.874,388.396C357.186,412.204 355.458,435.052 354.69,456.94C353.922,478.444 353.154,496.492 352.386,511.084L339.714,511.084L339.714,284.14C339.714,264.94 335.49,248.62 327.042,235.18C318.978,221.74 308.226,210.988 294.786,202.924C281.73,194.476 267.138,188.524 251.01,185.068C234.882,181.228 219.138,179.308 203.778,179.308C195.714,179.308 187.842,180.844 180.162,183.916C172.866,186.604 166.338,190.636 160.578,196.012C154.818,201.004 150.018,207.148 146.178,214.444C142.722,221.356 140.994,228.844 140.994,236.908C158.658,236.908 172.866,238.444 183.618,241.516C194.37,244.204 203.586,247.276 211.266,250.732C218.946,254.188 226.434,257.452 233.73,260.524C241.026,263.212 250.242,264.556 261.378,264.556C261.378,280.684 262.53,292.78 264.834,300.844C267.138,308.524 269.442,315.052 271.746,320.428C274.434,325.42 276.93,330.796 279.234,336.556C281.538,341.932 282.69,350.572 282.69,362.476C282.69,368.236 281.922,374.572 280.386,381.484C278.85,388.012 277.122,394.732 275.202,401.644C273.282,408.556 271.362,415.468 269.442,422.38C267.522,429.292 266.178,435.628 265.41,441.388C262.338,464.812 259.65,481.9 257.346,492.652C255.426,503.02 253.122,510.124 250.434,513.964C248.13,517.42 245.25,519.148 241.794,519.148C238.338,519.148 233.922,520.108 228.546,522.028C223.17,523.564 216.45,527.98 208.386,535.276C200.322,542.188 190.338,554.476 178.434,572.14C178.05,572.14 177.858,572.716 177.858,573.868L177.858,576.172C177.858,579.244 179.01,582.124 181.314,584.812C183.618,587.5 186.306,589.996 189.378,592.3C192.45,594.22 195.714,595.756 199.17,596.908C203.01,598.06 206.082,598.636 208.386,598.636C215.298,598.636 221.826,597.1 227.97,594.028C234.114,590.572 240.834,588.844 248.13,588.844C248.898,588.844 250.242,589.036 252.162,589.42L256.77,589.42Z" style="fill-rule:nonzero;"/>
        </g>
    </g>
</svg>
