<?xml version="1.0" encoding="UTF-8" standalone="no"?>
<!DOCTYPE svg PUBLIC "-//W3C//DTD SVG 1.1//EN" "http://www.w3.org/Graphics/SVG/1.1/DTD/svg11.dtd">
<svg width="100%" height="100%" viewBox="0 0 1080 1080" version="1.1" xmlns="http://www.w3.org/2000/svg" xmlns:xlink="http://www.w3.org/1999/xlink" xml:space="preserve" xmlns:serif="http://www.serif.com/" style="fill-rule:evenodd;clip-rule:evenodd;stroke-linejoin:round;stroke-miterlimit:2;">
    <g id="Poison">
        <g transform="matrix(1.33056,0,0,1.33056,-178.5,-135.922)">
            <path d="M540,700.654C534.393,700.654 531.227,697.505 530.657,696.937C529.519,695.805 528.582,694.414 528.015,692.914C526.958,690.12 527.15,690.049 527.346,687.068C529.372,656.122 529.371,656.125 531.102,625.158C531.352,620.692 532.723,596.164 533.729,569.299C534.617,545.573 534.794,532.336 534.837,529.121C534.902,524.27 535.163,504.746 534.087,468.485C533.963,464.311 533.307,442.201 532.057,416.323C529.948,372.666 529.859,372.673 527.343,329.039C527.167,325.989 526.963,325.915 528.052,323.062C528.627,321.555 529.567,320.158 530.707,319.017C531.873,317.852 533.3,316.9 534.829,316.285C540,314.204 544.403,315.976 545.171,316.285C546.7,316.9 548.127,317.852 549.293,319.017C550.433,320.158 551.373,321.555 551.948,323.062C553.037,325.915 552.833,325.989 552.657,329.039C550.14,372.674 550.052,372.667 547.943,416.323C546.693,442.201 546.037,464.311 545.913,468.485C544.837,504.746 545.098,524.27 545.163,529.121C545.206,532.336 545.383,545.573 546.271,569.299C547.277,596.164 548.648,620.692 548.898,625.158C551.102,664.586 552.372,682.975 552.719,688C552.771,688.762 553.079,693.22 549.343,696.937C548.773,697.505 545.607,700.654 540,700.654Z"/>
        </g>
        <g transform="matrix(-8.1473e-17,1.33056,-1.33056,-8.1473e-17,1215.92,-178.5)">
            <path d="M540,700.654C534.393,700.654 531.227,697.505 530.657,696.937C529.519,695.805 528.582,694.414 528.015,692.914C526.958,690.12 527.15,690.049 527.346,687.068C529.372,656.122 529.371,656.125 531.102,625.158C531.352,620.692 532.723,596.164 533.729,569.299C534.617,545.573 534.794,532.336 534.837,529.121C534.902,524.27 535.163,504.746 534.087,468.485C533.963,464.311 533.307,442.201 532.057,416.323C529.948,372.666 529.859,372.673 527.343,329.039C527.167,325.989 526.963,325.915 528.052,323.062C528.627,321.555 529.567,320.158 530.707,319.017C531.873,317.852 533.3,316.9 534.829,316.285C540,314.204 544.403,315.976 545.171,316.285C546.7,316.9 548.127,317.852 549.293,319.017C550.433,320.158 551.373,321.555 551.948,323.062C553.037,325.915 552.833,325.989 552.657,329.039C550.14,372.674 550.052,372.667 547.943,416.323C546.693,442.201 546.037,464.311 545.913,468.485C544.837,504.746 545.098,524.27 545.163,529.121C545.206,532.336 545.383,545.573 546.271,569.299C547.277,596.164 548.648,620.692 548.898,625.158C551.102,664.586 552.372,682.975 552.719,688C552.771,688.762 553.079,693.22 549.343,696.937C548.773,697.505 545.607,700.654 540,700.654Z"/>
        </g>
    </g>
</svg>
