<?xml version="1.0" encoding="UTF-8" standalone="no"?>
<!DOCTYPE svg PUBLIC "-//W3C//DTD SVG 1.1//EN" "http://www.w3.org/Graphics/SVG/1.1/DTD/svg11.dtd">
<svg width="100%" height="100%" viewBox="0 0 1080 1080" version="1.1" xmlns="http://www.w3.org/2000/svg" xmlns:xlink="http://www.w3.org/1999/xlink" xml:space="preserve" xmlns:serif="http://www.serif.com/" style="fill-rule:evenodd;clip-rule:evenodd;stroke-linejoin:round;stroke-miterlimit:2;">
    <g transform="matrix(-1,0,0,1,1068.25,41)">
        <g id="Shadow">
            <path d="M645.275,246.508C646.779,245.321 648.57,244.533 650.074,243.346C650.829,242.751 651.423,241.969 652.002,241.202C656.638,235.067 655.295,228.636 655.065,227.539C654.836,226.443 653.493,220.012 646.788,216.246C646.387,216.02 644.257,214.824 641.373,214.323C641.085,214.273 639.762,214.043 637.722,214.095C551.268,216.316 498.27,271.886 483.934,287.663C446.59,328.762 420.507,384.602 411.78,446.689C402.095,515.591 416.227,568.446 421.646,587.132C445.039,667.798 492.025,710.327 506.413,722.706C546.385,757.097 584.689,766.532 595.903,769.139C599.056,769.872 615.838,773.899 637.76,774.143C638.738,774.154 638.74,774.211 639.701,774.047C642.906,773.502 644.354,771.131 644.601,770.727C646.297,767.952 645.462,765.303 645.32,764.851C645.205,764.486 644.556,762.427 642.435,761.029C639.125,758.848 591.022,742.244 551.536,670.231C508.835,592.354 510.695,513.036 511.129,496.132C513.394,407.878 546.787,328.756 594.28,281.557C617.61,258.372 637.649,249.668 645.275,246.508ZM571.876,259.936C559.223,273.525 545.994,290.951 533.621,313.202C497.557,378.058 480.207,462.954 493.249,550.956C495.899,568.832 509.256,656.814 570.378,724.992C583.195,739.288 595.519,749.604 606.119,757.028C585.993,753.336 559.181,744.811 531.558,725.119C490.765,696.039 462.202,653.614 445.49,607.915C440.156,593.33 422.678,543.777 428.697,475.716C433.592,420.359 454.472,360.291 496.435,313.699C516.326,291.613 541.758,271.905 571.876,259.936Z"/>
        </g>
    </g>
</svg>
