<?xml version="1.0" encoding="UTF-8" standalone="no"?>
<!DOCTYPE svg PUBLIC "-//W3C//DTD SVG 1.1//EN" "http://www.w3.org/Graphics/SVG/1.1/DTD/svg11.dtd">
<svg width="100%" height="100%" viewBox="0 0 1080 1080" version="1.1" xmlns="http://www.w3.org/2000/svg" xmlns:xlink="http://www.w3.org/1999/xlink" xml:space="preserve" xmlns:serif="http://www.serif.com/" style="fill-rule:evenodd;clip-rule:evenodd;stroke-linejoin:round;stroke-miterlimit:2;">
    <g id="Swamp">
        <g transform="matrix(1,0,0,1,8,-54)">
            <path d="M864.4,788.195C859.975,794.011 854.078,794.827 853.029,794.973C850.907,795.266 848.676,795.147 846.616,794.559C842.508,793.388 842.634,793.037 839.359,790.3C822.266,776.017 786.688,746.249 746.115,716.699C729.827,704.836 713.334,693.958 710.438,692.048C672.033,666.717 643.593,653.122 642.936,652.798C613.958,638.494 595.821,632.772 589.302,630.697C568.229,623.992 552.805,622.235 551.552,622.071C531.394,619.43 513.713,620.363 495.251,623.178C479.638,625.559 461.533,629.563 437.294,637.656C401.765,649.519 370.081,665.085 354.206,673.147C311.098,695.036 274.857,717.702 260.907,726.421C244.709,736.546 227.604,747.584 227.553,747.603C225.477,748.387 223.516,749.607 221.324,749.952C219.199,750.287 216.961,750.142 214.879,749.599C212.765,749.048 210.718,748.065 208.985,746.736C203.175,742.281 202.279,736.11 202.123,735.036C201.81,732.874 201.951,730.608 202.502,728.494C203.044,726.412 204.01,724.388 205.34,722.696C206.711,720.952 208.665,719.752 210.43,718.407C210.666,718.227 227.533,709.283 229.022,708.493C234.576,705.548 260.629,691.649 292.897,675.98C308.584,668.363 341.364,652.77 380.942,637.944C430.737,619.291 463.102,613.463 468.987,612.31C477.96,610.553 499.393,606.569 524.893,606.537C534.691,606.525 548.854,607.013 571.179,611.761C612.368,620.522 652.926,639.556 656.694,641.28C664.93,645.046 688.701,655.721 726.599,677.413C730.379,679.577 747.76,689.525 773.216,705.548C804.495,725.236 832.393,744.59 859.748,763.499C863.26,765.927 863.565,765.711 865.79,769.358C866.905,771.187 867.616,773.305 867.899,775.429C868.038,776.478 868.825,782.38 864.4,788.195Z"/>
        </g>
        <g transform="matrix(1,0,0,1,8,-54)">
            <path d="M266.905,657.815C264.425,660.774 264.414,660.826 261.054,662.728C260.169,663.229 254.561,666.403 248.387,663.876C247.396,663.47 246.446,662.942 245.587,662.304C244.028,661.146 244.077,661.089 242.826,659.604C231.138,645.73 227.305,640.339 221.32,631.904C220.627,630.928 217.899,627.083 212.995,619.474C211.841,617.684 211.789,617.717 205.84,607.689C205.083,606.414 204.929,606.36 199.004,595.323C197.852,593.177 197.886,593.163 196.726,591.019C195.245,588.281 195.31,588.25 193.81,585.524C191.755,581.791 191.807,581.767 187.882,573.882C187.73,573.576 186.507,571.34 182.475,561.964C182.013,560.889 179.971,556.14 177.268,548.291C176.917,547.269 175.412,542.899 173.361,535.361C173.015,534.087 170.089,524.017 168.26,507.664C167.771,503.297 167.369,498.274 167.188,492.065C167.113,489.491 168.969,486.139 169.229,485.669C170.277,483.778 171.752,482.084 173.447,480.742C175.147,479.395 177.14,478.346 179.227,477.753C179.243,477.748 185.955,477.189 185.963,477.191C188.066,477.882 190.34,478.183 192.269,479.268C194.152,480.327 195.835,481.805 197.176,483.499C198.522,485.198 199.577,487.184 200.185,489.265C201.215,492.789 201.701,492.867 200.678,496.39C197.028,508.957 196.075,517.175 195.58,523.632C194.815,533.614 195.362,539.533 195.593,542.259C195.7,543.519 196.066,549.233 198.283,558.744C198.499,559.667 200.543,567.16 202.491,571.801C205.209,578.276 206.623,580.773 207.046,581.52C209.795,586.374 212.035,589.829 217.388,596.283C218.761,597.938 221.044,600.82 227.35,606.907C227.395,606.95 230.947,610.563 238.661,616.721C240.532,618.215 250.017,625.451 261.02,631.836C264.558,633.889 264.593,633.824 264.879,634.035C265.785,634.703 266.778,635.269 267.597,636.042C267.965,636.388 269.946,638.258 270.974,641.377C271.22,642.123 272.524,646.081 270.719,651.196C269.433,654.837 269.384,654.857 266.905,657.815Z"/>
        </g>
        <g transform="matrix(1,0,0,1,8,-54)">
            <path d="M503.824,414.962C503.713,414.512 502.926,411.287 503.239,408.273C503.463,406.115 504.142,403.971 505.158,402.054C506.169,400.148 507.555,398.389 509.212,397.006C509.225,396.995 515.034,393.82 515.042,393.819C517.282,393.596 519.521,392.941 521.762,393.153C523.923,393.357 526.075,394.027 527.992,395.044C529.901,396.056 531.658,397.455 533.028,399.126C536.032,402.789 535.915,402.977 536.532,407.676C536.725,409.15 537.301,412.967 538.642,427.424C539.137,432.757 539.457,436.523 540.046,450.895C540.084,451.826 540.153,453.512 540.363,462.534C540.498,468.33 540.402,468.328 540.47,474.126C540.537,479.911 540.394,479.908 540.454,485.694C540.517,491.636 540.357,491.633 540.439,495.993C540.494,498.906 540.463,498.902 540.549,501.815C540.636,504.748 540.599,504.744 540.722,507.676C540.985,513.913 540.852,513.935 541.006,520.876C541.032,522.065 541.12,526.022 540.979,535.743C540.908,540.624 540.517,549.986 540.212,554.578C540.124,555.908 539.764,561.321 538.665,571.168C538.625,571.521 538.195,575.377 538.144,575.58C537.874,576.673 537.733,577.807 537.333,578.86C537.153,579.332 536.185,581.878 533.698,584.023C533.103,584.536 529.948,587.258 524.531,587.55C520.675,587.759 520.638,587.721 516.956,586.564C513.273,585.408 513.22,585.418 510.176,583.043C509.374,582.417 504.293,578.453 504.261,571.782C504.256,570.712 504.381,569.632 504.641,568.594C505.217,566.29 505.36,566.34 506.502,564.258C507.019,563.317 511.726,555.14 517.361,540.824C517.364,540.816 520.187,533.194 521.708,527.639C523.833,519.881 524.447,516.498 524.625,515.516C526.046,507.681 526.351,504.29 526.44,503.307C526.994,497.145 526.933,494.616 526.729,490.475C526.422,484.214 526.211,482.816 525.67,478.969C525.13,475.13 524.751,472.356 522.97,464.673C522.929,464.495 522.326,461.526 520.111,454.155C520.08,454.051 519.067,450.29 515.749,441.561C512.61,433.304 510.2,427.776 506.017,419.32C505.85,418.983 503.906,415.054 503.824,414.962ZM503.824,414.962C503.84,415.029 503.842,415.034 503.822,414.967C503.82,414.96 503.821,414.958 503.824,414.962Z"/>
        </g>
        <g transform="matrix(1,0,0,1,8,-54)">
            <path d="M781.672,672.005C781.125,671.133 778.006,666.154 779.567,659.313C780.049,657.199 780.936,655.132 782.176,653.353C785.263,648.929 785.71,649.283 790.648,647.107C790.673,647.096 800.265,643.103 812.391,635.548C813.271,635 819.269,631.409 827.973,624.257C831.255,621.561 835.381,617.508 836.002,616.897C836.11,616.791 840.519,612.725 846.908,604.472C850.786,599.461 853.206,595.283 855.412,591.211C855.572,590.914 857.894,586.251 860.34,580.024C860.751,578.979 863.507,571.143 865.008,563.966C866.796,555.422 867.548,548.941 867.958,541.019C868.293,534.542 868.153,521.233 866.174,507.955C865.977,506.629 864.887,499.32 863.121,491.47C862.587,489.095 863.863,485.335 864.036,484.828C864.733,482.774 865.873,480.836 867.29,479.195C868.702,477.561 870.447,476.155 872.372,475.178C872.387,475.17 878.769,473.37 878.777,473.371C881.007,473.653 883.333,473.515 885.467,474.221C887.526,474.903 889.473,476.036 891.114,477.454C892.75,478.868 894.151,480.623 895.116,482.558C897.28,486.895 897.017,487.061 896.705,491.9C896.566,494.049 895.882,504.65 893.72,518.662C893.248,521.719 891.889,530.879 887.857,545.897C886.646,550.407 883.783,560.076 880.46,568.619C876.855,577.887 876.798,577.863 872.665,586.909C870.215,592.273 869.193,593.954 866.72,598.82C865.391,601.433 860.244,611.144 856.931,616.697C856.475,617.461 855.08,619.799 850.981,626.094C850.166,627.346 846.513,632.956 840.048,641.227C839.222,642.284 835.556,646.973 829.215,654.026C828.649,654.656 821.926,662.387 809.143,673.731C808.815,674.023 805.151,677.274 804.997,677.334C802.918,678.137 800.955,679.358 798.759,679.738C796.629,680.107 794.385,680.019 792.278,679.538C785.41,677.971 782.224,672.887 781.672,672.005Z"/>
        </g>
    </g>
</svg>
