<?xml version="1.0" encoding="UTF-8" standalone="no"?>
<!DOCTYPE svg PUBLIC "-//W3C//DTD SVG 1.1//EN" "http://www.w3.org/Graphics/SVG/1.1/DTD/svg11.dtd">
<svg width="100%" height="100%" viewBox="0 0 1080 1080" version="1.1" xmlns="http://www.w3.org/2000/svg" xmlns:xlink="http://www.w3.org/1999/xlink" xml:space="preserve" xmlns:serif="http://www.serif.com/" style="fill-rule:evenodd;clip-rule:evenodd;stroke-linejoin:round;stroke-miterlimit:2;">
    <g id="Temporal">
        <g transform="matrix(1,0,0,1,-63.5,19.5)">
            <path d="M571.998,339.076C585.393,339.434 650.854,340.581 708.617,395.935C752.622,438.105 777.101,498.776 771.803,563.736C767.267,619.356 740.608,670.005 699.274,704.536C688.152,713.827 656.822,738.921 606.872,747.855C594.853,750.004 564.446,754.486 526.363,745.356C474.737,732.98 426.469,698.722 397.874,646.895C391.601,635.525 368.294,593.041 372.445,531.727C376.173,476.68 401.608,426.383 440.966,391.083C458.317,375.521 478.316,362.904 500.203,354.011C533.018,340.679 560.148,339.436 571.998,339.076ZM572.002,372.922C559.044,372.601 514.105,371.967 468.092,404.68C429.542,432.087 400.726,475.812 393.621,528.9C387.916,571.53 397.017,615.825 420.632,653.022C445.195,691.712 485.71,723.954 538.475,734.102C573.814,740.898 604.096,734.157 607.16,733.534C615.651,731.809 677.308,720.052 719.594,657.84C754.165,606.979 759.878,544.409 740.68,490.977C720.394,434.52 673.577,391.158 615.436,377.415C594.721,372.518 578.294,372.793 572.002,372.922Z"/>
        </g>
        <g transform="matrix(1,0,0,1,-63.5,19.5)">
            <path d="M572,280.162C579.889,280.162 584.078,284.331 584.86,285.109C585.396,285.642 588.482,288.713 588.975,293.618C589.178,295.636 589.087,295.639 588.838,297.655C586.142,319.39 586.144,319.387 583.839,341.164C583.508,344.299 581.683,361.54 580.344,380.421C579.163,397.094 578.927,406.395 578.87,408.656C578.784,412.065 578.436,425.787 579.868,451.27C580.033,454.206 580.906,469.742 582.569,487.929C585.376,518.635 585.494,518.62 588.841,549.27C588.905,549.853 589.371,554.124 588.173,556.571C587.237,558.483 586.238,560.447 584.733,561.952C583.164,563.521 581.223,564.78 579.157,565.588C572,568.384 565.91,566.004 564.843,565.588C562.777,564.78 560.836,563.521 559.267,561.952C558.728,561.413 555.645,558.33 555.081,553.399C554.845,551.338 554.933,551.334 555.159,549.27C558.506,518.619 558.624,518.633 561.431,487.929C563.094,469.742 563.967,454.206 564.132,451.27C565.564,425.787 565.216,412.065 565.13,408.656C565.073,406.395 564.837,397.094 563.656,380.421C562.317,361.54 560.492,344.299 560.161,341.164C557.228,313.455 555.538,300.526 555.077,297C554.169,290.055 558.428,285.818 559.14,285.109C559.922,284.331 564.111,280.162 572,280.162Z"/>
        </g>
        <g transform="matrix(1,0,0,1,-63.5,19.5)">
            <path d="M841.838,550C841.838,557.889 837.669,562.078 836.891,562.86C836.358,563.396 833.287,566.482 828.382,566.975C826.364,567.178 826.361,567.087 824.345,566.838C802.61,564.142 802.613,564.144 780.836,561.839C777.701,561.508 760.46,559.683 741.579,558.344C724.906,557.163 715.605,556.927 713.344,556.87C709.935,556.784 696.213,556.436 670.73,557.868C667.794,558.033 652.258,558.906 634.071,560.569C603.365,563.376 603.38,563.494 572.73,566.841C572.147,566.905 567.876,567.371 565.429,566.173C563.517,565.237 561.553,564.238 560.048,562.733C558.479,561.164 557.22,559.223 556.412,557.157C553.616,550 555.996,543.91 556.412,542.843C557.22,540.777 558.479,538.836 560.048,537.267C560.587,536.728 563.67,533.645 568.601,533.081C570.662,532.845 570.666,532.933 572.73,533.159C603.381,536.506 603.367,536.624 634.071,539.431C652.258,541.094 667.794,541.967 670.73,542.132C696.213,543.564 709.935,543.216 713.344,543.13C715.605,543.073 724.906,542.837 741.579,541.656C760.46,540.317 777.701,538.492 780.836,538.161C808.545,535.228 821.474,533.538 825,533.077C831.945,532.169 836.182,536.428 836.891,537.14C837.669,537.922 841.838,542.111 841.838,550Z"/>
        </g>
    </g>
</svg>
