<?xml version="1.0" encoding="UTF-8" standalone="no"?>
<!DOCTYPE svg PUBLIC "-//W3C//DTD SVG 1.1//EN" "http://www.w3.org/Graphics/SVG/1.1/DTD/svg11.dtd">
<svg width="100%" height="100%" viewBox="0 0 1080 1080" version="1.1" xmlns="http://www.w3.org/2000/svg" xmlns:xlink="http://www.w3.org/1999/xlink" xml:space="preserve" xmlns:serif="http://www.serif.com/" style="fill-rule:evenodd;clip-rule:evenodd;stroke-linejoin:round;stroke-miterlimit:2;">
    <g transform="matrix(1,0,0,1,202.5,7)">
        <g id="Town">
            <path d="M337.5,362L507,704L168,704L337.5,362Z"/>
            <path d="M352.663,354.485C370.705,393.012 388.575,431.618 406.617,470.144C429.091,518.137 451.623,566.103 474.211,614.042C511.534,693.254 511.808,693.122 515,700.035C515.242,700.56 516.657,703.623 515.021,707.261C514.792,707.772 513.439,710.779 509.786,711.913C509.571,711.98 508.546,712.298 507,712.281C496.665,712.17 486.331,711.975 475.997,711.868C446.672,711.565 417.348,711.245 388.023,711.054C318.127,710.597 274.507,710.82 264.636,710.87C249.814,710.946 234.993,711.047 220.172,711.193C202.781,711.364 185.391,711.638 168,711.821C167.683,711.825 165.858,711.844 164.128,710.959C160.899,709.306 160.124,706.279 159.993,705.764C159.249,702.857 160.281,700.667 160.47,700.268C173.086,673.518 185.84,646.833 198.459,620.085C211.136,593.214 223.779,566.326 236.36,539.409L321.072,357.231C321.495,356.316 321.865,355.375 322.337,354.485C322.788,353.634 323.268,352.793 323.836,352.016C327.387,347.156 332.332,345.86 333.21,345.63C334.088,345.4 339.033,344.104 344.511,346.598C345.388,346.997 346.233,347.472 347.028,348.014C347.824,348.556 348.635,349.112 349.268,349.838C350.527,351.285 351.403,353.038 352.663,354.485ZM337.43,398.277C333.27,406.115 329.112,413.955 324.974,421.805C302.475,464.494 280.768,507.608 257.576,549.924C229.605,600.959 199.475,650.791 171.504,701.826C202.569,700.766 233.57,698.19 264.636,697.13C278.344,696.662 292.067,697.265 305.783,697.244C333.197,697.203 360.616,696.352 388.023,696.946C426.37,697.777 464.653,700.687 503,701.518C488.22,674.831 470.052,650.116 455.272,623.429C429.597,577.069 406.28,529.443 381.7,482.494C366.99,454.397 352.187,426.349 337.43,398.277Z"/>
        </g>
    </g>
</svg>
