<?xml version="1.0" encoding="UTF-8" standalone="no"?>
<!DOCTYPE svg PUBLIC "-//W3C//DTD SVG 1.1//EN" "http://www.w3.org/Graphics/SVG/1.1/DTD/svg11.dtd">
<svg width="100%" height="100%" viewBox="0 0 1080 1080" version="1.1" xmlns="http://www.w3.org/2000/svg" xmlns:xlink="http://www.w3.org/1999/xlink" xml:space="preserve" xmlns:serif="http://www.serif.com/" style="fill-rule:evenodd;clip-rule:evenodd;stroke-linejoin:round;stroke-miterlimit:2;">
    <g transform="matrix(1,0,0,1,203.411,111)">
        <g id="Water">
            <path d="M166.093,584.193C171.469,590.721 178.381,598.209 186.829,606.657C195.277,615.105 204.301,622.977 213.901,630.273C223.885,637.185 233.869,643.137 243.853,648.129C253.837,652.737 262.861,654.657 270.925,653.889C275.917,650.433 281.293,645.441 287.053,638.913C292.813,632.385 298.765,626.049 304.909,619.905C311.437,613.761 318.349,608.769 325.645,604.929C332.941,601.089 341.005,599.937 349.837,601.473C359.053,603.393 367.885,606.849 376.333,611.841C385.165,616.449 393.997,621.441 402.829,626.817C411.661,631.809 420.877,636.225 430.477,640.065C440.077,643.905 450.829,645.825 462.733,645.825C480.013,645.825 493.837,640.833 504.205,630.849C514.957,620.865 524.365,609.153 532.429,595.713C540.877,581.889 548.941,568.257 556.621,554.817C564.685,540.993 574.285,530.433 585.421,523.137L585.421,517.377C585.805,514.305 585.997,511.233 585.997,508.161L585.997,498.945C586.381,495.873 586.573,493.761 586.573,492.609L586.573,477.057C586.573,470.529 585.997,464.001 584.845,457.473C583.693,450.561 581.773,444.417 579.085,439.041C576.397,433.281 572.557,429.249 567.565,426.945C557.965,422.337 550.477,422.913 545.101,428.673C540.109,434.433 535.885,443.265 532.429,455.169C528.973,466.689 525.901,479.937 523.213,494.913C520.525,509.889 517.069,524.097 512.845,537.537C508.621,550.593 502.861,561.729 495.565,570.945C488.653,580.161 479.245,584.769 467.341,584.769C464.269,584.769 459.277,582.657 452.365,578.433C445.453,573.825 438.349,568.449 431.053,562.305C423.757,555.777 417.229,549.057 411.469,542.145C405.709,534.849 402.637,528.513 402.253,523.137C401.101,510.849 401.293,500.865 402.829,493.185C404.365,485.505 406.477,478.785 409.165,473.025C411.853,466.881 414.349,460.737 416.653,454.593C418.957,448.449 420.109,440.769 420.109,431.553C420.109,423.873 418.381,416.577 414.925,409.665C411.853,402.753 410.317,395.457 410.317,387.777C410.317,378.177 412.237,368.385 416.077,358.401C420.301,348.417 425.869,339.393 432.781,331.329C439.693,323.265 447.565,316.737 456.397,311.745C465.613,306.753 475.405,304.257 485.773,304.257C497.677,304.257 507.085,308.481 513.997,316.929C521.293,324.993 527.437,334.593 532.429,345.729C537.805,356.481 542.989,367.233 547.981,377.985C552.973,388.353 559.501,396.033 567.565,401.025C569.869,394.881 572.557,389.313 575.629,384.321C578.701,378.945 581.581,373.761 584.269,368.769C587.341,363.393 589.837,358.017 591.757,352.641C593.677,347.265 594.637,341.505 594.637,335.361C594.637,325.761 592.141,315.009 587.149,303.105C582.541,291.201 576.205,280.065 568.141,269.697C560.461,259.329 551.629,250.689 541.645,243.777C531.661,236.865 521.485,233.409 511.117,233.409C501.133,233.409 491.149,234.945 481.165,238.017C471.181,241.089 461.581,245.313 452.365,250.689C443.149,255.681 434.317,261.441 425.869,267.969C417.421,274.113 409.549,280.641 402.253,287.553C398.797,279.105 394.957,272.385 390.733,267.393C386.509,262.401 381.901,258.561 376.909,255.873C371.917,253.185 366.349,251.649 360.205,251.265C354.445,250.497 348.109,250.113 341.197,250.113C335.437,250.113 329.869,250.305 324.493,250.689C319.501,251.073 314.701,252.225 310.093,254.145C305.869,255.681 301.837,258.561 297.997,262.785C294.541,266.625 291.469,272.001 288.781,278.913C288.013,280.833 288.589,284.097 290.509,288.705C292.813,292.929 295.117,295.425 297.421,296.193L314.701,287.553C323.533,309.057 331.597,332.481 338.893,357.825C346.573,383.169 350.413,407.553 350.413,430.977C350.413,436.353 349.837,443.841 348.685,453.441C347.533,462.657 345.613,473.025 342.925,484.545C340.621,496.065 337.741,507.777 334.285,519.681C330.829,531.201 326.797,541.761 322.189,551.361C317.581,560.961 312.397,568.833 306.637,574.977C301.261,581.121 295.309,584.193 288.781,584.193C277.261,584.193 267.469,580.161 259.405,572.097C251.341,563.649 244.621,552.897 239.245,539.841C233.869,526.785 229.645,512.385 226.573,496.641C223.885,480.513 221.773,464.769 220.237,449.409C219.085,433.665 218.317,419.265 217.933,406.209C217.549,392.769 217.357,382.209 217.357,374.529C217.357,363.009 220.237,353.409 225.997,345.729C231.757,338.049 238.093,330.945 245.005,324.417C251.917,317.889 258.253,310.977 264.013,303.681C269.773,296.385 272.653,287.169 272.653,276.033C266.125,276.033 260.365,276.609 255.373,277.761C250.381,278.913 245.773,280.257 241.549,281.793C237.325,283.329 232.909,284.673 228.301,285.825C224.077,286.977 219.469,287.553 214.477,287.553L209.869,287.553C208.717,283.713 206.797,278.721 204.109,272.577C201.805,266.433 198.733,260.481 194.893,254.721C191.437,248.961 187.213,244.161 182.221,240.321C177.613,236.097 172.429,233.985 166.669,233.985C157.837,233.985 148.237,237.633 137.869,244.929C127.501,251.841 117.901,260.481 109.069,270.849C100.237,280.833 92.941,291.393 87.181,302.529C81.421,313.665 78.541,323.265 78.541,331.329C78.541,343.233 84.685,349.185 96.973,349.185C105.421,349.185 111.949,347.073 116.557,342.849C121.165,338.625 126.157,331.713 131.533,322.113C131.917,323.649 132.877,326.529 134.413,330.753C136.333,334.593 138.445,338.817 140.749,343.425C143.053,348.033 145.549,352.449 148.237,356.673C151.309,360.897 154.381,363.969 157.453,365.889C155.917,384.321 155.725,402.561 156.877,420.609C158.029,438.273 159.373,456.129 160.909,474.177C162.829,492.225 164.365,510.465 165.517,528.897C167.053,546.945 167.245,565.377 166.093,584.193Z" style="fill-rule:nonzero;"/>
        </g>
    </g>
</svg>
