<?xml version="1.0" encoding="UTF-8" standalone="no"?>
<!DOCTYPE svg PUBLIC "-//W3C//DTD SVG 1.1//EN" "http://www.w3.org/Graphics/SVG/1.1/DTD/svg11.dtd">
<svg width="100%" height="100%" viewBox="0 0 1080 1080" version="1.1" xmlns="http://www.w3.org/2000/svg" xmlns:xlink="http://www.w3.org/1999/xlink" xml:space="preserve" xmlns:serif="http://www.serif.com/" style="fill-rule:evenodd;clip-rule:evenodd;stroke-linejoin:round;stroke-miterlimit:2;">
    <g transform="matrix(1,0,0,1,189.292,98.3881)">
        <g id="Wood">
            <path d="M203.54,454.86L203.54,467.532C203.924,472.908 204.308,475.98 204.692,476.748C204.692,477.132 205.076,478.284 205.844,480.204C206.612,481.74 207.572,483.468 208.724,485.388C209.876,487.308 210.836,489.228 211.604,491.148C212.756,492.684 213.332,493.644 213.332,494.028C217.556,512.844 220.436,528.012 221.972,539.532C223.892,550.668 225.428,559.692 226.58,566.604C228.116,573.132 229.844,578.316 231.764,582.156C233.684,585.996 236.756,590.028 240.98,594.252C245.588,598.092 251.924,603.084 259.988,609.228C268.052,614.988 278.612,623.052 291.668,633.42C300.884,640.716 309.524,647.628 317.588,654.156C325.652,660.684 334.1,666.444 342.932,671.436C351.764,676.044 360.98,679.692 370.58,682.38C380.564,685.068 391.892,686.412 404.564,686.412C411.092,686.412 416.852,686.22 421.844,685.836C427.22,685.452 432.596,684.876 437.972,684.108C443.348,683.724 448.916,682.956 454.676,681.804C460.436,680.652 467.156,679.116 474.836,677.196C476.756,671.436 480.212,664.908 485.204,657.612C490.196,650.316 495.38,645.132 500.756,642.06C515.732,634.764 526.292,628.044 532.436,621.9C538.58,615.372 543.188,609.228 546.26,603.468C549.332,597.708 552.212,592.332 554.9,587.34C557.588,581.964 562.772,576.972 570.452,572.364C570.452,571.212 569.3,569.484 566.996,567.18C565.076,564.876 563.348,563.724 561.812,563.724C552.212,563.724 542.804,566.604 533.588,572.364C524.756,577.74 515.732,583.692 506.516,590.22C497.3,596.748 487.7,602.892 477.716,608.652C468.116,614.028 457.556,616.716 446.036,616.716C426.836,616.716 411.284,614.412 399.38,609.804C387.86,605.196 378.644,598.86 371.732,590.796C365.204,582.348 360.404,572.556 357.332,561.42C354.644,550.284 352.724,538.188 351.572,525.132C350.42,512.076 349.46,498.444 348.692,484.236C347.924,470.028 346.388,455.82 344.084,441.612C343.7,441.228 343.508,439.308 343.508,435.852L343.508,427.788C343.508,423.564 343.892,420.3 344.66,417.996C345.812,415.308 346.964,413.004 348.116,411.084C349.652,408.78 350.804,406.476 351.572,404.172C352.724,401.484 353.3,398.028 353.3,393.804C353.3,389.964 352.724,386.508 351.572,383.436C350.804,379.98 349.652,376.716 348.116,373.644C346.964,370.572 345.812,367.5 344.66,364.428C343.892,361.356 343.508,357.9 343.508,354.06C343.508,347.532 344.468,342.732 346.388,339.66C348.692,336.204 353.684,332.364 361.364,328.14L383.252,328.14C387.86,327.756 392.084,327.564 395.924,327.564L405.14,327.564C417.428,327.564 429.332,328.524 440.852,330.444C452.756,332.364 464.468,334.668 475.988,337.356C487.508,339.66 499.22,341.772 511.124,343.692C523.028,345.612 535.124,346.572 547.412,346.572L556.052,346.572C559.892,346.188 561.812,345.996 561.812,345.996C563.348,344.844 565.844,342.732 569.3,339.66C573.14,336.588 576.788,333.324 580.244,329.868C584.084,326.028 587.54,322.38 590.612,318.924C594.068,315.468 596.18,312.78 596.948,310.86C596.18,308.94 593.492,306.828 588.884,304.524C584.66,302.22 579.668,299.916 573.908,297.612C568.148,295.308 562.388,293.196 556.628,291.276C551.252,288.972 547.22,286.86 544.532,284.94C536.468,278.796 526.676,273.996 515.156,270.54C504.02,266.7 492.5,264.012 480.596,262.476C468.692,260.556 456.788,259.404 444.884,259.02C433.364,258.636 422.996,258.444 413.78,258.444C413.012,258.444 411.284,258.828 408.596,259.596C406.292,260.364 403.604,261.324 400.532,262.476C397.46,263.628 394.58,264.78 391.892,265.932C389.588,266.7 388.052,267.084 387.284,267.084C387.284,267.084 386.708,267.276 385.556,267.66L380.372,267.66C379.604,267.276 379.028,267.084 378.644,267.084C377.108,266.7 374.036,265.356 369.428,263.052C365.204,260.748 362.516,259.212 361.364,258.444C362.132,253.452 363.092,247.5 364.244,240.588C365.396,233.676 365.588,226.956 364.82,220.428C364.436,213.9 362.708,208.332 359.636,203.724C356.564,199.116 351.188,196.812 343.508,196.812C338.9,196.812 335.252,198.54 332.564,201.996C330.26,205.452 328.34,209.676 326.804,214.668C325.268,219.276 323.924,224.076 322.772,229.068C321.62,234.06 319.892,238.092 317.588,241.164C288.788,246.156 259.796,249.228 230.612,250.38C201.428,251.532 172.436,251.34 143.636,249.804C137.108,253.26 131.348,258.444 126.356,265.356C121.748,272.268 117.716,279.948 114.26,288.396C111.188,296.46 108.692,304.908 106.772,313.74C105.236,322.572 104.468,330.636 104.468,337.932C116.756,337.932 128.852,336.588 140.756,333.9C152.66,330.828 164.372,327.564 175.892,324.108C187.796,320.652 199.508,317.58 211.028,314.892C222.932,311.82 235.22,310.284 247.892,310.284L253.076,310.284C255.764,310.284 258.452,310.476 261.14,310.86L274.388,310.86C266.708,320.46 258.644,331.02 250.196,342.54C242.132,354.06 234.644,366.156 227.732,378.828C220.82,391.116 215.06,403.788 210.452,416.844C205.844,429.516 203.54,442.188 203.54,454.86ZM387.284,659.916C389.588,659.916 391.316,660.876 392.468,662.796C393.62,664.332 394.196,666.252 394.196,668.556C394.196,670.86 393.62,672.972 392.468,674.892C391.316,676.428 389.588,677.196 387.284,677.196C384.98,677.196 383.252,676.428 382.1,674.892C381.332,672.972 380.948,670.86 380.948,668.556C380.948,666.252 381.332,664.332 382.1,662.796C383.252,660.876 384.98,659.916 387.284,659.916ZM544.532,572.364C546.836,572.364 548.372,573.324 549.14,575.244C550.292,576.78 550.868,578.7 550.868,581.004C550.868,583.308 550.292,585.42 549.14,587.34C548.372,588.876 546.836,589.644 544.532,589.644C542.228,589.644 540.5,588.876 539.348,587.34C538.58,585.42 538.196,583.308 538.196,581.004C538.196,578.7 538.58,576.78 539.348,575.244C540.5,573.324 542.228,572.364 544.532,572.364ZM282.452,446.22C282.452,438.924 282.836,430.476 283.604,420.876C284.756,410.892 286.484,401.1 288.788,391.5C291.476,381.9 295.124,373.068 299.732,365.004C304.34,356.556 310.292,350.22 317.588,345.996L317.588,546.444C310.292,541.836 304.34,535.5 299.732,527.436C295.124,518.988 291.476,510.156 288.788,500.94C286.484,491.34 284.756,481.74 283.604,472.14C282.836,462.156 282.452,453.516 282.452,446.22Z" style="fill-rule:nonzero;"/>
        </g>
    </g>
</svg>
